<svg id="Camada_1" data-name="Camada 1" xmlns="http://www.w3.org/2000/svg" xmlns:xlink="http://www.w3.org/1999/xlink" viewBox="0 0 100.92 52.34"><defs><linearGradient id="linear-gradient" x1="24.9" y1="10.48" x2="32.31" y2="6.23" gradientUnits="userSpaceOnUse"><stop offset="0" stop-color="#ce1500"/><stop offset="1" stop-color="#841011"/></linearGradient><linearGradient id="linear-gradient-2" x1="14.54" y1="18.87" x2="19.08" y2="14.84" gradientUnits="userSpaceOnUse"><stop offset="0" stop-color="#006d30"/><stop offset="0.7" stop-color="#009146"/></linearGradient><linearGradient id="linear-gradient-3" x1="15.39" y1="16.83" x2="30.15" y2="7.02" gradientUnits="userSpaceOnUse"><stop offset="0" stop-color="#007f35"/><stop offset="0.04" stop-color="#318c2a"/><stop offset="0.07" stop-color="#5c9720"/><stop offset="0.12" stop-color="#83a118"/><stop offset="0.16" stop-color="#a3a910"/><stop offset="0.21" stop-color="#bdb00a"/><stop offset="0.26" stop-color="#d2b506"/><stop offset="0.31" stop-color="#e0b902"/><stop offset="0.38" stop-color="#e8bb01"/><stop offset="0.5" stop-color="#ebbc00"/><stop offset="0.56" stop-color="#eab700"/><stop offset="0.64" stop-color="#e7a700"/><stop offset="0.73" stop-color="#e38e00"/><stop offset="0.83" stop-color="#dd6a00"/><stop offset="0.92" stop-color="#d53d00"/><stop offset="1" stop-color="#ce1500"/></linearGradient></defs><polygon points="35.62 20.66 35.36 20.66 35.36 3.25 35.62 3.26 35.62 20.66" style="fill:#504f51"/><path d="M71.83,17.72V16.05a2.36,2.36,0,0,1,.62-1.54A7.93,7.93,0,0,1,74,13.15l1.77-1.22a6.9,6.9,0,0,0,1.53-1.41,2.55,2.55,0,0,0,.63-1.61,2.25,2.25,0,0,0-.64-1.59,2.63,2.63,0,0,0-3.36-.16,1.89,1.89,0,0,0-.61,1.52A.41.41,0,0,1,73.1,9a.67.67,0,0,1-.46.14c-.36,0-.54-.23-.54-.7a2.55,2.55,0,0,1,1-2,3.64,3.64,0,0,1,2.41-.81,3.6,3.6,0,0,1,2.56,1,3.07,3.07,0,0,1,1,2.35,3.31,3.31,0,0,1-.45,1.65,5.11,5.11,0,0,1-1.12,1.35c-.45.37-.93.74-1.46,1.12l-1.46,1a5.08,5.08,0,0,0-1.12,1A1.69,1.69,0,0,0,73,16.05v1.07h5.74a.4.4,0,0,1,.31.15.6.6,0,0,1,.12.36.59.59,0,0,1-.12.37.4.4,0,0,1-.31.17H72.38A.62.62,0,0,1,72,18a.37.37,0,0,1-.17-.32" style="fill:#504f51"/><path d="M79.64,14.73a.54.54,0,0,1,.07-.29l4.51-8.51a.59.59,0,0,1,.56-.34.64.64,0,0,1,.38.14.38.38,0,0,1,.19.32.68.68,0,0,1,0,.23l-4.16,7.85h3.52V10.78c0-.29.2-.44.6-.44a.82.82,0,0,1,.41.12.35.35,0,0,1,.18.32v3.36h1a.36.36,0,0,1,.33.16.55.55,0,0,1,.12.35.57.57,0,0,1-.13.38.38.38,0,0,1-.32.16h-1v2.54a.38.38,0,0,1-.18.33.73.73,0,0,1-.41.12.7.7,0,0,1-.42-.12.37.37,0,0,1-.17-.33V15.19H80.1c-.31,0-.47-.15-.46-.45" style="fill:#504f51"/><path d="M43.53,18.24a4.24,4.24,0,0,1-2.46-.72h0l-.42-.32A3.83,3.83,0,0,1,39.5,14.9l0-.24,2-.43,0,.26a2,2,0,0,0,2,1.7,2.06,2.06,0,0,0,1.59-.68,1.86,1.86,0,0,0,.32-.88,1,1,0,0,0-.16-.65l0,0a13.66,13.66,0,0,0-1.51-1.15,2.2,2.2,0,0,1-.65-.48,11.48,11.48,0,0,1-2.54-2A3.32,3.32,0,0,1,40,8.66a3.36,3.36,0,0,1,.91-2.21,3.5,3.5,0,0,1,2.81-1A3.92,3.92,0,0,1,46,6.22a4.23,4.23,0,0,1,1.36,2.42l0,.24-2,.44,0-.26a1.91,1.91,0,0,0-1.64-1.57c-.84,0-1.09.11-1.33.37a1.24,1.24,0,0,0-.34.78,1.67,1.67,0,0,0,.21.51,16.4,16.4,0,0,0,1.56,1.18l.73.51a14.34,14.34,0,0,1,2.23,1.8,3.15,3.15,0,0,1,.67,2.08,3.6,3.6,0,0,1-.75,2.08,4.25,4.25,0,0,1-3.17,1.44" style="fill:#504f51"/><polygon points="57.96 18.18 56.18 18.18 50.85 9.76 50.85 18.18 48.82 18.18 48.82 5.55 50.6 5.55 55.89 13.87 55.89 5.55 57.96 5.55 57.96 18.18" style="fill:#504f51"/><path d="M63.28,18.24a4.24,4.24,0,0,1-2.46-.72h0l-.42-.32a3.83,3.83,0,0,1-1.15-2.31l0-.24,2-.43,0,.26a2,2,0,0,0,2,1.7,2.06,2.06,0,0,0,1.59-.68,1.86,1.86,0,0,0,.32-.88A.94.94,0,0,0,65,14v0a13.66,13.66,0,0,0-1.51-1.15,2.2,2.2,0,0,1-.65-.48,11.48,11.48,0,0,1-2.54-2,3.32,3.32,0,0,1-.56-1.69,3.36,3.36,0,0,1,.91-2.21,3.5,3.5,0,0,1,2.81-1,3.92,3.92,0,0,1,2.28.78A4.17,4.17,0,0,1,67.1,8.64l.05.24-2,.44,0-.26a1.91,1.91,0,0,0-1.64-1.57c-.84,0-1.09.11-1.33.37a1.24,1.24,0,0,0-.34.78,1.67,1.67,0,0,0,.21.51,16.4,16.4,0,0,0,1.56,1.18l.73.51a14.34,14.34,0,0,1,2.23,1.8,3.15,3.15,0,0,1,.67,2.08,3.6,3.6,0,0,1-.75,2.08,4.25,4.25,0,0,1-3.17,1.44" style="fill:#504f51"/><path d="M22.34,3.24a8.71,8.71,0,0,0-8.23,5.89c.53-.23,4.78-3.54,9.18-1C30.08,12,26.16,19,25.86,19.91A8.71,8.71,0,0,0,22.34,3.24Z" style="fill:url(#linear-gradient)"/><path d="M22.35,20.65a8.69,8.69,0,0,0,8.23-5.89c-.53.24-6.81,4.34-11.35.51-2-1.7-2.1-4.55-1.66-7.36A14.2,14.2,0,0,1,18.83,4a8.71,8.71,0,0,0,3.52,16.67Z" style="fill:url(#linear-gradient-2)"/><path d="M18.13,9.15c-1.68,2.08-1.56,4.75-2.95,5-.55.09-1.44-.39-1.53-1.86a8.72,8.72,0,0,0,6.28,8,4.47,4.47,0,0,1-1.14-3.23,7.14,7.14,0,0,1,6.75-7c2.88-.26,4.26.37,5.5,2.12a2.81,2.81,0,0,0,0-.29,8.6,8.6,0,0,0-2.59-6.19C27.91,5.22,22.19,4.11,18.13,9.15Z" style="fill:url(#linear-gradient-3)"/><path d="M94.26,50.82H6.66a5,5,0,0,1-5-5V29.31a5,5,0,0,1,5-5h87.6a5,5,0,0,1,5,5V45.86A5,5,0,0,1,94.26,50.82ZM6.66,25.35a4,4,0,0,0-4,4V45.86a4,4,0,0,0,4,4h87.6a4,4,0,0,0,4-4V29.31a4,4,0,0,0-4-4Z" style="fill:#504f51"/><path d="M31.87,41.3H30.51V34.7h1.36Z" style="fill:#504f51"/><path d="M34.25,36.39l0,.57a1.71,1.71,0,0,1,1.41-.66,1.47,1.47,0,0,1,1.17.46,2.19,2.19,0,0,1,.39,1.37V41.3H35.94V38.16a.86.86,0,0,0-.18-.61.79.79,0,0,0-.6-.19.9.9,0,0,0-.83.47V41.3H33V36.39Z" style="fill:#504f51"/><path d="M38.24,35.12a.66.66,0,0,1,.2-.48.72.72,0,0,1,.53-.19.73.73,0,0,1,.54.19.66.66,0,0,1,.2.48.65.65,0,0,1-.2.49.74.74,0,0,1-.54.19.73.73,0,0,1-.53-.19A.65.65,0,0,1,38.24,35.12Zm1.39,6.18H38.32V36.39h1.31Z" style="fill:#504f51"/><path d="M42.75,40.34a.88.88,0,0,0,.59-.2.73.73,0,0,0,.24-.53h1.23a1.82,1.82,0,0,1-.27.91,1.77,1.77,0,0,1-.74.64,2.18,2.18,0,0,1-1,.23,2.1,2.1,0,0,1-1.66-.67,2.61,2.61,0,0,1-.61-1.85v-.08a2.62,2.62,0,0,1,.6-1.81,2.1,2.1,0,0,1,1.66-.68,2.05,2.05,0,0,1,1.47.53,1.87,1.87,0,0,1,.57,1.39H43.58a.93.93,0,0,0-.24-.62.78.78,0,0,0-.6-.24.8.8,0,0,0-.69.33,2,2,0,0,0-.23,1.09v.13A2,2,0,0,0,42.05,40,.8.8,0,0,0,42.75,40.34Z" style="fill:#504f51"/><path d="M45.55,35.12a.65.65,0,0,1,.19-.48.86.86,0,0,1,1.08,0,.66.66,0,0,1,.2.48.62.62,0,0,1-.21.49.83.83,0,0,1-1.06,0A.61.61,0,0,1,45.55,35.12Zm1.39,6.18H45.62V36.39h1.32Z" style="fill:#504f51"/><path d="M50.86,41.3a1.53,1.53,0,0,1-.13-.44,1.57,1.57,0,0,1-1.24.53A1.71,1.71,0,0,1,48.3,41a1.31,1.31,0,0,1-.48-1,1.38,1.38,0,0,1,.58-1.19,2.89,2.89,0,0,1,1.67-.43h.61V38a.78.78,0,0,0-.18-.54.67.67,0,0,0-.55-.21.83.83,0,0,0-.52.16.57.57,0,0,0-.19.44H47.93a1.28,1.28,0,0,1,.27-.79,1.73,1.73,0,0,1,.74-.57A2.67,2.67,0,0,1,50,36.3a2.13,2.13,0,0,1,1.44.46A1.6,1.6,0,0,1,52,38v2.13a2.35,2.35,0,0,0,.2,1v.08Zm-1.08-.91a1.07,1.07,0,0,0,.53-.13.84.84,0,0,0,.37-.35v-.84h-.49c-.66,0-1,.23-1,.68v.08a.5.5,0,0,0,.18.4A.64.64,0,0,0,49.78,40.39Z" style="fill:#504f51"/><path d="M55.76,37.62l-.48,0a1,1,0,0,0-1,.5V41.3H53V36.39h1.24l0,.59a1.23,1.23,0,0,1,1.1-.68,1.29,1.29,0,0,1,.4.06Z" style="fill:#504f51"/><path d="M61.36,40a.42.42,0,0,0-.24-.38,2.38,2.38,0,0,0-.76-.25c-1.17-.25-1.75-.74-1.75-1.49a1.35,1.35,0,0,1,.54-1.09,2.18,2.18,0,0,1,1.41-.44,2.37,2.37,0,0,1,1.5.44,1.42,1.42,0,0,1,.56,1.15H61.31a.64.64,0,0,0-.18-.47,1,1,0,0,0-1.08,0,.46.46,0,0,0-.18.38.42.42,0,0,0,.2.35,2,2,0,0,0,.7.23,6.25,6.25,0,0,1,.82.22,1.36,1.36,0,0,1,1,1.32A1.29,1.29,0,0,1,62.06,41a2.55,2.55,0,0,1-1.49.41,2.57,2.57,0,0,1-1.1-.22,1.94,1.94,0,0,1-.75-.6,1.42,1.42,0,0,1-.27-.83h1.24a.74.74,0,0,0,.26.54,1.07,1.07,0,0,0,.65.18,1,1,0,0,0,.57-.14A.47.47,0,0,0,61.36,40Z" style="fill:#504f51"/><path d="M65.74,41.39A2.42,2.42,0,0,1,64,40.73,2.36,2.36,0,0,1,63.3,39v-.13a3,3,0,0,1,.28-1.32,2.15,2.15,0,0,1,.81-.9,2.29,2.29,0,0,1,1.2-.32,2,2,0,0,1,1.58.64,2.55,2.55,0,0,1,.58,1.8v.53H64.63a1.26,1.26,0,0,0,.38.78,1.16,1.16,0,0,0,.81.29A1.41,1.41,0,0,0,67,39.79l.65.72a2,2,0,0,1-.8.65A2.72,2.72,0,0,1,65.74,41.39Zm-.16-4a.84.84,0,0,0-.63.26,1.44,1.44,0,0,0-.31.76h1.82v-.1a1,1,0,0,0-.23-.68A.85.85,0,0,0,65.58,37.36Z" style="fill:#504f51"/><path d="M71.16,40a.42.42,0,0,0-.24-.38,2.46,2.46,0,0,0-.77-.25c-1.16-.25-1.75-.74-1.75-1.49a1.35,1.35,0,0,1,.54-1.09,2.23,2.23,0,0,1,1.42-.44,2.41,2.41,0,0,1,1.5.44,1.42,1.42,0,0,1,.56,1.15H71.11a.65.65,0,0,0-.19-.47.77.77,0,0,0-.56-.18.82.82,0,0,0-.52.15.46.46,0,0,0-.18.38.41.41,0,0,0,.21.35,2,2,0,0,0,.7.23,6.71,6.71,0,0,1,.82.22,1.37,1.37,0,0,1,1,1.32A1.28,1.28,0,0,1,71.85,41a2.51,2.51,0,0,1-1.48.41,2.57,2.57,0,0,1-1.1-.22,1.8,1.8,0,0,1-.75-.6,1.42,1.42,0,0,1-.27-.83h1.24a.7.7,0,0,0,.26.54,1,1,0,0,0,.64.18,1,1,0,0,0,.57-.14A.45.45,0,0,0,71.16,40Z" style="fill:#504f51"/><path d="M75.93,40a.42.42,0,0,0-.24-.38,2.3,2.3,0,0,0-.76-.25c-1.17-.25-1.75-.74-1.75-1.49a1.35,1.35,0,0,1,.54-1.09,2.19,2.19,0,0,1,1.42-.44,2.36,2.36,0,0,1,1.49.44,1.39,1.39,0,0,1,.56,1.15H75.88a.64.64,0,0,0-.18-.47,1,1,0,0,0-1.08,0,.46.46,0,0,0-.18.38.41.41,0,0,0,.21.35,2,2,0,0,0,.69.23,6.92,6.92,0,0,1,.83.22,1.37,1.37,0,0,1,1,1.32A1.3,1.3,0,0,1,76.63,41a2.87,2.87,0,0,1-2.58.19,1.8,1.8,0,0,1-.75-.6,1.43,1.43,0,0,1-.28-.83h1.25a.7.7,0,0,0,.26.54,1,1,0,0,0,.64.18,1,1,0,0,0,.57-.14A.44.44,0,0,0,75.93,40Z" style="fill:#504f51"/><path d="M80.89,41.3a1.53,1.53,0,0,1-.13-.44,1.56,1.56,0,0,1-1.24.53A1.73,1.73,0,0,1,78.33,41a1.3,1.3,0,0,1-.47-1,1.37,1.37,0,0,1,.57-1.19,2.93,2.93,0,0,1,1.68-.43h.6V38a.78.78,0,0,0-.18-.54.67.67,0,0,0-.55-.21.83.83,0,0,0-.52.16.56.56,0,0,0-.18.44H78a1.28,1.28,0,0,1,.27-.79,1.73,1.73,0,0,1,.74-.57,2.67,2.67,0,0,1,1.08-.21,2.09,2.09,0,0,1,1.44.46A1.57,1.57,0,0,1,82,38v2.13a2.35,2.35,0,0,0,.2,1v.08Zm.86-6.91a1.25,1.25,0,0,1-.3.86.93.93,0,0,1-.73.35.91.91,0,0,1-.3,0,1.7,1.7,0,0,1-.37-.16,1.79,1.79,0,0,0-.34-.16.85.85,0,0,0-.23,0,.37.37,0,0,0-.27.11.44.44,0,0,0-.11.33l-.76,0a1.33,1.33,0,0,1,.29-.86.93.93,0,0,1,.73-.35,1.09,1.09,0,0,1,.26,0,3.85,3.85,0,0,1,.39.17,2.46,2.46,0,0,0,.38.16.75.75,0,0,0,.21,0,.37.37,0,0,0,.28-.11.4.4,0,0,0,.11-.32Zm-1.94,6a1.13,1.13,0,0,0,.54-.13.87.87,0,0,0,.36-.35v-.84h-.49c-.66,0-1,.23-1,.68v.08a.5.5,0,0,0,.17.4A.64.64,0,0,0,79.81,40.39Z" style="fill:#504f51"/><path d="M82.83,38.8a2.89,2.89,0,0,1,.28-1.3,2,2,0,0,1,.81-.88,2.34,2.34,0,0,1,1.22-.32,2.23,2.23,0,0,1,1.62.61,2.47,2.47,0,0,1,.71,1.65v.34a2.57,2.57,0,0,1-.63,1.81,2.44,2.44,0,0,1-3.38,0,2.61,2.61,0,0,1-.63-1.85Zm1.31.1A1.82,1.82,0,0,0,84.4,40a.95.95,0,0,0,1.5,0,2,2,0,0,0,.26-1.17,1.79,1.79,0,0,0-.26-1.06.94.94,0,0,0-1.5,0A2,2,0,0,0,84.14,38.9Z" style="fill:#504f51"/><g id="SNS24-Homepage"><g id="SNS24-Home---Desktop-v4"><g id="Splash"><g id="Group-44"><g id="Group-36"><g id="BTN"><g id="user-circle"><path id="Shape" d="M19.26,31.35a6.31,6.31,0,1,0,6.31,6.31A6.3,6.3,0,0,0,19.26,31.35Zm3.26,10.73a5.46,5.46,0,0,1-6.52,0v-.35a1.63,1.63,0,0,1,1.63-1.62,7.38,7.38,0,0,0,1.63.29,7.51,7.51,0,0,0,1.63-.29,1.63,1.63,0,0,1,1.63,1.62Zm.78-.7a2.44,2.44,0,0,0-2.41-2.09c-.52,0-.77.29-1.63.29s-1.1-.29-1.63-.29a2.44,2.44,0,0,0-2.41,2.09,5.5,5.5,0,1,1,8.08,0Zm-4-7.18a2.24,2.24,0,1,0,2.24,2.24A2.24,2.24,0,0,0,19.26,34.2Zm0,3.67a1.43,1.43,0,1,1,1.43-1.43A1.42,1.42,0,0,1,19.26,37.87Z" style="fill:#504f51"/></g></g></g></g></g></g></g></svg>