<svg id="Camada_1" data-name="Camada 1" xmlns="http://www.w3.org/2000/svg" xmlns:xlink="http://www.w3.org/1999/xlink" viewBox="0 0 185.05 30.01"><defs><linearGradient id="linear-gradient" x1="13.69" y1="13.78" x2="21.11" y2="9.53" gradientUnits="userSpaceOnUse"><stop offset="0" stop-color="#ce1500"/><stop offset="1" stop-color="#841011"/></linearGradient><linearGradient id="linear-gradient-2" x1="3.33" y1="22.17" x2="7.87" y2="18.14" gradientUnits="userSpaceOnUse"><stop offset="0" stop-color="#006d30"/><stop offset="0.7" stop-color="#009146"/></linearGradient><linearGradient id="linear-gradient-3" x1="4.19" y1="20.13" x2="18.94" y2="10.32" gradientUnits="userSpaceOnUse"><stop offset="0" stop-color="#007f35"/><stop offset="0.04" stop-color="#318c2a"/><stop offset="0.07" stop-color="#5c9720"/><stop offset="0.12" stop-color="#83a118"/><stop offset="0.16" stop-color="#a3a910"/><stop offset="0.21" stop-color="#bdb00a"/><stop offset="0.26" stop-color="#d2b506"/><stop offset="0.31" stop-color="#e0b902"/><stop offset="0.38" stop-color="#e8bb01"/><stop offset="0.5" stop-color="#ebbc00"/><stop offset="0.56" stop-color="#eab700"/><stop offset="0.64" stop-color="#e7a700"/><stop offset="0.73" stop-color="#e38e00"/><stop offset="0.83" stop-color="#dd6a00"/><stop offset="0.92" stop-color="#d53d00"/><stop offset="1" stop-color="#ce1500"/></linearGradient></defs><polygon points="24.41 23.96 24.15 23.96 24.15 6.55 24.41 6.56 24.41 23.96" style="fill:#504f51"/><path d="M60.62,21V19.35a2.41,2.41,0,0,1,.62-1.54,7.61,7.61,0,0,1,1.5-1.36l1.77-1.22A7.15,7.15,0,0,0,66,13.82a2.55,2.55,0,0,0,.63-1.61A2.29,2.29,0,0,0,66,10.62a2.34,2.34,0,0,0-1.8-.69,2.26,2.26,0,0,0-1.57.53A1.87,1.87,0,0,0,62.06,12a.39.39,0,0,1-.17.33.67.67,0,0,1-.46.14c-.36,0-.53-.23-.53-.71a2.52,2.52,0,0,1,1-2,3.64,3.64,0,0,1,2.41-.81,3.6,3.6,0,0,1,2.56.94,3.09,3.09,0,0,1,1,2.36,3.31,3.31,0,0,1-.45,1.65,4.92,4.92,0,0,1-1.12,1.35c-.44.37-.93.74-1.46,1.12l-1.46,1a4.84,4.84,0,0,0-1.12,1,1.69,1.69,0,0,0-.45,1.08v1.07h5.74a.4.4,0,0,1,.31.16.57.57,0,0,1,.13.36.62.62,0,0,1-.13.37.38.38,0,0,1-.3.17H61.17a.6.6,0,0,1-.37-.13.38.38,0,0,1-.18-.32" style="fill:#504f51"/><path d="M68.43,18a.52.52,0,0,1,.07-.29L73,9.23a.59.59,0,0,1,.56-.34A.58.58,0,0,1,74,9a.38.38,0,0,1,.19.32.68.68,0,0,1,0,.23l-4.15,7.85h3.51V14.08c0-.29.19-.44.59-.44a.73.73,0,0,1,.41.12.35.35,0,0,1,.18.32v3.35h1a.41.41,0,0,1,.34.16.66.66,0,0,1,.11.36.62.62,0,0,1-.12.38.44.44,0,0,1-.33.16h-1V21a.38.38,0,0,1-.18.33.71.71,0,0,1-.41.12.7.7,0,0,1-.42-.12.39.39,0,0,1-.17-.33V18.48H68.89a.4.4,0,0,1-.46-.45" style="fill:#504f51"/><path d="M32.32,21.54a4.19,4.19,0,0,1-2.45-.72h0l-.42-.32a3.88,3.88,0,0,1-1.16-2.31l0-.24,2-.43.05.26a2,2,0,0,0,2,1.7,2.08,2.08,0,0,0,1.6-.68,1.87,1.87,0,0,0,.31-.89,1,1,0,0,0-.16-.64l0,0a12.77,12.77,0,0,0-1.51-1.15,2.32,2.32,0,0,1-.65-.49,11.15,11.15,0,0,1-2.53-2A3.28,3.28,0,0,1,28.79,12a3.34,3.34,0,0,1,.91-2.21,3.48,3.48,0,0,1,2.81-1,3.92,3.92,0,0,1,2.28.78,4.15,4.15,0,0,1,1.36,2.41l.05.25-2,.43-.05-.25a1.91,1.91,0,0,0-1.64-1.57c-.83,0-1.08.11-1.33.37a1.24,1.24,0,0,0-.34.78,1.67,1.67,0,0,0,.21.51,17.77,17.77,0,0,0,1.56,1.18l.73.51a15,15,0,0,1,2.24,1.8A3.2,3.2,0,0,1,36.24,18a3.6,3.6,0,0,1-.75,2.08,4.26,4.26,0,0,1-3.17,1.44" style="fill:#504f51"/><polygon points="46.75 21.47 44.97 21.47 39.64 13.06 39.64 21.47 37.61 21.47 37.61 8.84 39.4 8.84 44.68 17.17 44.68 8.84 46.75 8.84 46.75 21.47" style="fill:#504f51"/><path d="M52.07,21.54a4.24,4.24,0,0,1-2.46-.72h0l-.41-.32A3.88,3.88,0,0,1,48,18.2L48,18l2-.43,0,.26a2,2,0,0,0,2,1.7,2.1,2.1,0,0,0,1.6-.68,1.87,1.87,0,0,0,.31-.89,1,1,0,0,0-.16-.64l0,0a13.66,13.66,0,0,0-1.51-1.15,2.32,2.32,0,0,1-.65-.49,11.15,11.15,0,0,1-2.53-2A3.28,3.28,0,0,1,48.54,12a3.34,3.34,0,0,1,.91-2.21,3.47,3.47,0,0,1,2.81-1,3.92,3.92,0,0,1,2.28.78,4.15,4.15,0,0,1,1.36,2.41l0,.25-2,.43-.05-.25a1.91,1.91,0,0,0-1.64-1.57c-.83,0-1.08.11-1.33.37a1.24,1.24,0,0,0-.34.78,1.67,1.67,0,0,0,.21.51,17.77,17.77,0,0,0,1.56,1.18l.73.51a15,15,0,0,1,2.24,1.8A3.2,3.2,0,0,1,56,18a3.6,3.6,0,0,1-.75,2.08,4.26,4.26,0,0,1-3.17,1.44" style="fill:#504f51"/><path d="M11.13,6.54A8.71,8.71,0,0,0,2.9,12.43c.53-.24,4.78-3.54,9.18-.95,6.79,3.85,2.87,10.85,2.57,11.73A8.71,8.71,0,0,0,11.13,6.54Z" style="fill:url(#linear-gradient)"/><path d="M11.14,24a8.72,8.72,0,0,0,8.24-5.89c-.54.23-6.82,4.34-11.36.51-2-1.7-2.1-4.55-1.66-7.36A14.2,14.2,0,0,1,7.62,7.28,8.71,8.71,0,0,0,11.14,24Z" style="fill:url(#linear-gradient-2)"/><path d="M6.92,12.44c-1.67,2.08-1.56,4.76-2.95,5-.54.09-1.44-.39-1.52-1.86a8.7,8.7,0,0,0,6.27,8,4.46,4.46,0,0,1-1.13-3.23,7.12,7.12,0,0,1,6.75-7c2.87-.26,4.25.37,5.49,2.12a2.91,2.91,0,0,0,0-.3,8.62,8.62,0,0,0-2.58-6.18C16.7,8.51,11,7.4,6.92,12.44Z" style="fill:url(#linear-gradient-3)"/><path d="M178.16,28.48H90.55a5,5,0,0,1-5-4.95V7a5,5,0,0,1,5-5h87.61a5,5,0,0,1,5,5V23.53A5,5,0,0,1,178.16,28.48ZM90.55,3a4,4,0,0,0-4,4V23.53a4,4,0,0,0,4,3.95h87.61a4,4,0,0,0,4-3.95V7a4,4,0,0,0-4-4Z" style="fill:#504f51"/><path d="M115.76,19H114.4V12.36h1.36Z" style="fill:#504f51"/><path d="M118.15,14.06l0,.57A1.71,1.71,0,0,1,119.6,14a1.42,1.42,0,0,1,1.16.46,2.17,2.17,0,0,1,.39,1.37V19h-1.31V15.82a.87.87,0,0,0-.18-.61.86.86,0,0,0-.61-.18.89.89,0,0,0-.83.47V19h-1.31V14.06Z" style="fill:#504f51"/><path d="M122.13,12.79a.66.66,0,0,1,.2-.49.77.77,0,0,1,.54-.19.76.76,0,0,1,.53.19.63.63,0,0,1,.2.49.66.66,0,0,1-.2.49.72.72,0,0,1-.53.19.76.76,0,0,1-.54-.19A.66.66,0,0,1,122.13,12.79ZM123.52,19h-1.31V14.06h1.31Z" style="fill:#504f51"/><path d="M126.65,18a.85.85,0,0,0,.58-.2.68.68,0,0,0,.24-.53h1.23a1.62,1.62,0,0,1-.27.91,1.83,1.83,0,0,1-.73.65,2.39,2.39,0,0,1-1,.23,2.15,2.15,0,0,1-1.66-.67,2.63,2.63,0,0,1-.61-1.85v-.09a2.64,2.64,0,0,1,.6-1.81,2.13,2.13,0,0,1,1.66-.67,2,2,0,0,1,1.47.52,1.85,1.85,0,0,1,.57,1.4h-1.23a.89.89,0,0,0-.24-.63.77.77,0,0,0-.59-.23.81.81,0,0,0-.7.33,2,2,0,0,0-.23,1.08v.14a2,2,0,0,0,.23,1.09A.81.81,0,0,0,126.65,18Z" style="fill:#504f51"/><path d="M129.44,12.79a.66.66,0,0,1,.2-.49.76.76,0,0,1,.53-.19.77.77,0,0,1,.54.19.7.7,0,0,1,0,1,.74.74,0,0,1-.54.19.73.73,0,0,1-.53-.19A.66.66,0,0,1,129.44,12.79ZM130.83,19h-1.31V14.06h1.31Z" style="fill:#504f51"/><path d="M134.76,19a1.63,1.63,0,0,1-.14-.44,1.58,1.58,0,0,1-1.23.53,1.76,1.76,0,0,1-1.2-.42,1.33,1.33,0,0,1-.47-1.05,1.4,1.4,0,0,1,.57-1.2A2.85,2.85,0,0,1,134,16h.6v-.28a.81.81,0,0,0-.18-.55.7.7,0,0,0-.55-.2.77.77,0,0,0-.52.16.54.54,0,0,0-.18.43h-1.31a1.31,1.31,0,0,1,.26-.79,1.73,1.73,0,0,1,.74-.57,2.85,2.85,0,0,1,1.08-.2,2.14,2.14,0,0,1,1.44.45,1.59,1.59,0,0,1,.53,1.29v2.12a2.4,2.4,0,0,0,.2,1.06V19Zm-1.09-.92a1.22,1.22,0,0,0,.54-.12.93.93,0,0,0,.36-.35v-.84h-.49c-.66,0-1,.22-1.05.68v.07a.52.52,0,0,0,.17.41A.68.68,0,0,0,133.67,18.05Z" style="fill:#504f51"/><path d="M139.65,15.29a2.88,2.88,0,0,0-.47,0,1,1,0,0,0-1,.51V19h-1.31V14.06h1.24l0,.58a1.2,1.2,0,0,1,1.09-.67,1.4,1.4,0,0,1,.41.06Z" style="fill:#504f51"/><path d="M145.25,17.61a.42.42,0,0,0-.24-.38,3,3,0,0,0-.76-.25c-1.17-.24-1.75-.74-1.75-1.48a1.34,1.34,0,0,1,.54-1.09,2.14,2.14,0,0,1,1.42-.44,2.3,2.3,0,0,1,1.49.44,1.36,1.36,0,0,1,.56,1.14H145.2a.62.62,0,0,0-.18-.46.74.74,0,0,0-.57-.19.78.78,0,0,0-.51.15.48.48,0,0,0-.18.38.38.38,0,0,0,.21.35,2,2,0,0,0,.69.24,4.48,4.48,0,0,1,.83.22,1.35,1.35,0,0,1,1,1.32,1.28,1.28,0,0,1-.58,1.08,2.46,2.46,0,0,1-1.49.42,2.68,2.68,0,0,1-1.09-.22,1.82,1.82,0,0,1-.75-.61,1.33,1.33,0,0,1-.28-.82h1.25a.66.66,0,0,0,.25.53,1,1,0,0,0,.65.19.92.92,0,0,0,.57-.15A.43.43,0,0,0,145.25,17.61Z" style="fill:#504f51"/><path d="M149.63,19.06a2.42,2.42,0,0,1-1.76-.66,2.38,2.38,0,0,1-.68-1.77V16.5a3,3,0,0,1,.29-1.32,2.09,2.09,0,0,1,.81-.9,2.27,2.27,0,0,1,1.19-.31,2.06,2.06,0,0,1,1.59.63,2.63,2.63,0,0,1,.58,1.8v.54h-3.13A1.15,1.15,0,0,0,149.71,18a1.42,1.42,0,0,0,1.19-.55l.64.72a1.91,1.91,0,0,1-.8.65A2.51,2.51,0,0,1,149.63,19.06Zm-.15-4a.83.83,0,0,0-.64.26,1.44,1.44,0,0,0-.31.76h1.83v-.11a1,1,0,0,0-.24-.68A.82.82,0,0,0,149.48,15Z" style="fill:#504f51"/><path d="M155.05,17.61a.42.42,0,0,0-.24-.38,3,3,0,0,0-.76-.25c-1.17-.24-1.76-.74-1.76-1.48a1.35,1.35,0,0,1,.55-1.09,2.13,2.13,0,0,1,1.41-.44,2.33,2.33,0,0,1,1.5.44,1.38,1.38,0,0,1,.56,1.14H155a.62.62,0,0,0-.18-.46.74.74,0,0,0-.57-.19.78.78,0,0,0-.51.15.48.48,0,0,0-.18.38.38.38,0,0,0,.2.35,2.21,2.21,0,0,0,.7.24,4.16,4.16,0,0,1,.82.22,1.34,1.34,0,0,1,1,1.32,1.27,1.27,0,0,1-.57,1.08,2.48,2.48,0,0,1-1.49.42,2.73,2.73,0,0,1-1.1-.22,1.82,1.82,0,0,1-.75-.61,1.39,1.39,0,0,1-.27-.82h1.24a.7.7,0,0,0,.26.53,1,1,0,0,0,.65.19.92.92,0,0,0,.57-.15A.45.45,0,0,0,155.05,17.61Z" style="fill:#504f51"/><path d="M159.82,17.61a.43.43,0,0,0-.23-.38,3.13,3.13,0,0,0-.77-.25c-1.16-.24-1.75-.74-1.75-1.48a1.34,1.34,0,0,1,.54-1.09A2.15,2.15,0,0,1,159,14a2.35,2.35,0,0,1,1.5.44,1.38,1.38,0,0,1,.56,1.14h-1.32a.62.62,0,0,0-.18-.46.73.73,0,0,0-.56-.19.81.81,0,0,0-.52.15.48.48,0,0,0-.18.38.38.38,0,0,0,.21.35,2.23,2.23,0,0,0,.69.24,4.28,4.28,0,0,1,.83.22,1.35,1.35,0,0,1,1,1.32,1.26,1.26,0,0,1-.58,1.08,2.45,2.45,0,0,1-1.48.42,2.7,2.7,0,0,1-1.1-.22,1.82,1.82,0,0,1-.75-.61,1.39,1.39,0,0,1-.27-.82h1.24a.67.67,0,0,0,.26.53,1,1,0,0,0,.64.19.92.92,0,0,0,.57-.15A.43.43,0,0,0,159.82,17.61Z" style="fill:#504f51"/><path d="M164.79,19a1.34,1.34,0,0,1-.13-.44,1.62,1.62,0,0,1-1.24.53,1.76,1.76,0,0,1-1.2-.42,1.36,1.36,0,0,1-.47-1.05,1.38,1.38,0,0,1,.58-1.2A2.8,2.8,0,0,1,164,16h.6v-.28a.86.86,0,0,0-.17-.55.89.89,0,0,0-1.07,0,.51.51,0,0,0-.19.43h-1.31a1.31,1.31,0,0,1,.26-.79,1.73,1.73,0,0,1,.74-.57,2.85,2.85,0,0,1,1.08-.2,2.14,2.14,0,0,1,1.44.45,1.6,1.6,0,0,1,.54,1.29v2.12a2.28,2.28,0,0,0,.19,1.06V19Zm.85-6.91a1.27,1.27,0,0,1-.3.86.91.91,0,0,1-.73.34,1.39,1.39,0,0,1-.3,0,2.13,2.13,0,0,1-.37-.17,2.82,2.82,0,0,0-.34-.16.86.86,0,0,0-.23,0,.36.36,0,0,0-.27.11.44.44,0,0,0-.11.32l-.76-.05a1.26,1.26,0,0,1,.3-.85.89.89,0,0,1,.72-.36,1.09,1.09,0,0,1,.26,0,3.24,3.24,0,0,1,.39.16,2.46,2.46,0,0,0,.38.16.78.78,0,0,0,.22,0,.4.4,0,0,0,.27-.11.42.42,0,0,0,.12-.32Zm-1.94,6a1.19,1.19,0,0,0,.54-.12.93.93,0,0,0,.36-.35v-.84h-.49c-.66,0-1,.22-1.05.68v.07a.55.55,0,0,0,.17.41A.7.7,0,0,0,163.7,18.05Z" style="fill:#504f51"/><path d="M166.72,16.47a2.86,2.86,0,0,1,.28-1.3,2.06,2.06,0,0,1,.81-.89A2.34,2.34,0,0,1,169,14a2.22,2.22,0,0,1,1.62.61,2.42,2.42,0,0,1,.7,1.65v.33a2.54,2.54,0,0,1-.63,1.81,2.44,2.44,0,0,1-3.39,0,2.63,2.63,0,0,1-.63-1.85Zm1.31.09a1.88,1.88,0,0,0,.26,1.07.95.95,0,0,0,1.5,0,2,2,0,0,0,.27-1.17,1.81,1.81,0,0,0-.27-1.06.95.95,0,0,0-1.5,0A2.1,2.1,0,0,0,168,16.56Z" style="fill:#504f51"/><g id="SNS24-Homepage"><g id="SNS24-Home---Desktop-v4"><g id="Splash"><g id="Group-44"><g id="Group-36"><g id="BTN"><g id="user-circle"><path id="Shape" d="M103.15,9a6.32,6.32,0,1,0,6.32,6.32A6.32,6.32,0,0,0,103.15,9Zm3.26,10.74a5.46,5.46,0,0,1-6.52,0V19.4a1.64,1.64,0,0,1,1.63-1.63,7.51,7.51,0,0,0,1.63.29,7.38,7.38,0,0,0,1.63-.29,1.63,1.63,0,0,1,1.63,1.63Zm.78-.7A2.43,2.43,0,0,0,104.78,17c-.52,0-.77.29-1.63.29s-1.1-.29-1.63-.29a2.42,2.42,0,0,0-2.4,2.09,5.5,5.5,0,1,1,8.07,0Zm-4-7.19a2.24,2.24,0,1,0,2.24,2.24A2.25,2.25,0,0,0,103.15,11.86Zm0,3.67a1.43,1.43,0,1,1,1.43-1.43A1.43,1.43,0,0,1,103.15,15.53Z" style="fill:#504f51"/></g></g></g></g></g></g></g></svg>