<svg xmlns="http://www.w3.org/2000/svg" viewBox="0 0 93.2431 93.2431"><title>Ativo 5300</title><circle cx="46.6216" cy="46.6217" r="46.6215" fill="#434621"/><path d="M91.8593,59.2364l-23-28-7,8-11-12L36.448,35.74,49.0662,48.3071,20.8593,70.2364l30.8084,22.731C68.9126,91.11,87.8593,77.2364,91.8593,59.2364Z" opacity="0.1"/><path d="M50.05,46.7851a11.837,11.837,0,1,0-12.3067.3338c-7.2566,2.8945-13.8313,10.6131-16.98,23.1175h45.72C63.9645,57.1826,57.4671,49.38,50.05,46.7851Z" fill="#fff"/><path d="M69.7171,45.1188a8.0249,8.0249,0,1,0-8.3445.2281c-4.92,1.9778-9.3782,7.252-11.5133,15.7963h31C79.152,52.2234,74.7465,46.8922,69.7171,45.1188Z" fill="#fff"/></svg>