<svg xmlns="http://www.w3.org/2000/svg" viewBox="0 0 91.832 91.832"><title>Ativo 2300</title><circle cx="45.9161" cy="45.916" r="45.916" fill="#009bdd"/><circle cx="45.9161" cy="45.916" r="45.916" fill="#434621"/><path d="M67.0609,19.1229l-13.0784-.47s-1.3818-1.3662-3.7619-3.7961c-8.37-3.1683-10.0441,3.7961-10.0441,3.7961L24.551,72.6959,43.6293,91.7742c.7578.0372,1.52.0578,2.2868.0578A45.916,45.916,0,0,0,91.832,45.9161c0-.6958-.0219-1.3862-.0523-2.0744Z" opacity="0.1"/><path d="M25.8277,18.6534H66.0042a1.435,1.435,0,0,1,1.435,1.435V71.7437a1.4349,1.4349,0,0,1-1.4349,1.4349H25.8277a1.4349,1.4349,0,0,1-1.4349-1.4349V20.0883a1.4349,1.4349,0,0,1,1.4349-1.4349Z" fill="#fff"/><rect x="27.2627" y="21.5231" width="37.3068" height="48.7858" fill="none" stroke="#434621" stroke-miterlimit="10"/><path d="M55.96,18.0883H51.6555V16.6534a5.74,5.74,0,0,0-11.479,0v1.4349H35.872a1.4349,1.4349,0,0,0-1.4351,1.4348v2.87a1.4352,1.4352,0,0,0,1.4351,1.4351H55.96a1.435,1.435,0,0,0,1.4349-1.4351v-2.87A1.4348,1.4348,0,0,0,55.96,18.0883ZM45.9161,20.2406a3.5872,3.5872,0,1,1,3.5871-3.5872A3.5873,3.5873,0,0,1,45.9161,20.2406Z" fill="#fff" stroke="#434621" stroke-miterlimit="10"/><rect x="47.3509" y="64.5695" width="14.3487" height="1.4349" fill="#434621"/><rect x="47.3509" y="60.2648" width="14.3487" height="1.4348" fill="#434621"/><rect x="47.3509" y="55.9602" width="14.3487" height="1.4349" fill="#434621"/><rect x="47.3509" y="51.6555" width="14.3487" height="1.4349" fill="#434621"/><rect x="47.3509" y="44.4811" width="14.3487" height="1.435" fill="#434621"/><rect x="47.3509" y="40.1765" width="14.3487" height="1.4349" fill="#434621"/><rect x="47.3509" y="35.872" width="14.3487" height="1.4348" fill="#434621"/><rect x="47.3509" y="31.5673" width="14.3487" height="1.4348" fill="#434621"/><path d="M37.3068,35.1709c-1.53-5.4268-7.1744-2.5608-7.1744,1.3844s3.9764,6.6453,7.1744,8.7629c3.7263-2.45,7.1743-4.8176,7.1743-8.7629S39.1961,29.7163,37.3068,35.1709Z" fill="#434621"/><path d="M38.7417,42.3288h0c-.5853,0-.5807-.2964-4.3048-5.2609-1.4288,1.9043-1.5915,2.3912-2.1522,2.3912h-2.87V38.0243h2.511l1.9372-2.5825a.7426.7426,0,0,1,1.1476,0l3.7309,4.9737,1.5785-2.104a.7167.7167,0,0,1,.5737-.2872h3.5872v1.4348H41.2527C39.4848,41.8158,39.3233,42.3288,38.7417,42.3288Z" fill="#fff"/><path d="M39.3148,52.8261a.7233.7233,0,0,0-.499-1.0109,7.1754,7.1754,0,0,0-5.9051,12.6855.72.72,0,0,0,1.087-.272Z" fill="#434621"/><path d="M40.6159,53.431,35.2988,64.8338a.7231.7231,0,0,0,.499,1.0107A7.1753,7.1753,0,0,0,41.703,53.1592.72.72,0,0,0,40.6159,53.431Z" fill="#434621"/></svg>