<svg xmlns="http://www.w3.org/2000/svg" viewBox="0 0 37.8 37.92"><defs><style>.cls-1{fill:#971c1f;}.cls-2{fill:#ccc;}.cls-3{fill:#791619;}.cls-4,.cls-5{fill:#fff;}.cls-4{fill-rule:evenodd;}</style></defs><title>menu 2</title><g id="Camada_2" data-name="Camada 2"><g id="Camada_1-2" data-name="Camada 1"><path class="cls-1" d="M0,19a18.9,18.9,0,1,1,19,19A18.92,18.92,0,0,1,0,19Z"/><path class="cls-2" d="M20.64,37.92h0a19.85,19.85,0,0,0,3.84-.84A19.85,19.85,0,0,1,20.64,37.92Z"/><path class="cls-3" d="M20.64,37.92l-.24-.24L5.76,23.16l5.16-4.32-2-1.8,3.48-4.2L15.72,16l6-3.84,2.52,2.4,3.84,3.84-2.4-2.52L29.4,12.6l8.4,7.68a19.08,19.08,0,0,1-13.32,16.8A19.85,19.85,0,0,1,20.64,37.92Z"/><path class="cls-4" d="M18.84,10.92A4.14,4.14,0,1,1,14.76,15,4.12,4.12,0,0,1,18.84,10.92Z"/><path class="cls-4" d="M14.64,20.76a7.91,7.91,0,0,0-2.76,2.52H6a.38.38,0,0,1-.36-.36,4.25,4.25,0,0,1,4.2-4.2h1.44a4.15,4.15,0,0,1,3.36,1.8v.24Z"/><path class="cls-4" d="M10.56,12a2.82,2.82,0,0,1,2.76,2.88,2.76,2.76,0,1,1-5.52,0A2.82,2.82,0,0,1,10.56,12Z"/><path class="cls-4" d="M23.52,20.76a.12.12,0,0,1-.12-.12v-.12a4.56,4.56,0,0,1,3.48-1.8H28.2a4.17,4.17,0,0,1,4.2,4.2c0,.24-.12.36-.24.36H26.28A7.91,7.91,0,0,0,23.52,20.76Z"/><path class="cls-4" d="M27.6,12a2.9,2.9,0,0,1,2.76,2.88,2.79,2.79,0,0,1-2.76,2.76,2.72,2.72,0,0,1-2.76-2.76A2.82,2.82,0,0,1,27.6,12Z"/><path class="cls-5" d="M16.92,21.6a2.16,2.16,0,0,0,4.32,0,1.78,1.78,0,0,0-.12-.84v-.12a2.34,2.34,0,0,0-1-.12H17v.24A1.78,1.78,0,0,0,16.92,21.6Z"/><path class="cls-5" d="M21.48,20.64a2.64,2.64,0,0,1,.12,1,2.53,2.53,0,0,1-2.52,2.52,2.68,2.68,0,0,1-2.4-3.48,6.71,6.71,0,0,0-5.28,6.6.52.52,0,0,0,.48.48h14.4a.44.44,0,0,0,.48-.48A6.71,6.71,0,0,0,21.48,20.64Z"/><path class="cls-1" d="M16.56,21.6a2.62,2.62,0,0,0,2.52,2.52A2.53,2.53,0,0,0,21.6,21.6a2.64,2.64,0,0,0-.12-1h-.36v.12a1.78,1.78,0,0,1,.12.84,2.16,2.16,0,0,1-4.32,0,1.78,1.78,0,0,1,.12-.84v-.24a.44.44,0,0,1-.36.12A2.64,2.64,0,0,0,16.56,21.6Z"/><path class="cls-1" d="M20.52,26.52A1.62,1.62,0,0,1,19,24.84v-1c0-.12,0-.12.12-.12s.24,0,.24.12v1a1.23,1.23,0,0,0,1.2,1.32,1.33,1.33,0,0,0,1.32-1.32v-.36c0-.12,0-.24.12-.24a.26.26,0,0,1,.24.24v.36A1.72,1.72,0,0,1,20.52,26.52Z"/><path class="cls-1" d="M22.68,24.36a.64.64,0,0,1-.72.72.69.69,0,0,1-.72-.72.77.77,0,0,1,.72-.72A.69.69,0,0,1,22.68,24.36Z"/></g></g></svg>