<svg xmlns="http://www.w3.org/2000/svg" viewBox="0 0 101.8808 101.8149"><title>Ativo 7300</title><circle cx="50.8288" cy="50.8288" r="50.8288" fill="#434621"/><path d="M73.1959,27.7719c-6.9275-7.1334-8.0645-6.9239-18.7935-6.9239-34.2549,0-36.1034,29.1794-27.2012,52.4241.323.3326,10.2,17.9686,20.6663,28.4334,1.0542.0653,2.1139.1094,3.1845.1094a50.8288,50.8288,0,0,0,50.8288-50.8288c0-1.07-.0441-2.13-.1093-3.1836C101.8808,48.0492,73.5073,28.0744,73.1959,27.7719Z" opacity="0.1"/><circle cx="50.8288" cy="50.8288" r="32.8887" fill="#fff"/><rect x="28.903" y="45.3473" width="43.8516" height="10.9629" transform="translate(-18.6047 32.2243) rotate(-30.0001)" fill="#434621"/><rect x="45.3474" y="28.903" width="10.9629" height="43.8516" transform="translate(-18.6046 69.4334) rotate(-59.9999)" fill="#434621"/><rect x="45.1788" y="29.5025" width="10.9629" height="43.8516" fill="#434621"/><path d="M50.5548,67.2731l-.4111-32.8886a.6852.6852,0,1,1,1.37-.0172v.0172l-.4111,32.8886a.2741.2741,0,0,1-.5481,0Z" fill="#fdfdfd"/><circle cx="50.8288" cy="34.3845" r="1.3703" fill="#fff"/><path d="M51.4406,40.2541a5.2822,5.2822,0,0,0-1.2181.4352l.0071.5723a5.2287,5.2287,0,0,1,1.2053-.5429Z" fill="#fff"/><path d="M50.4055,55.3289l.0089.72a6.4318,6.4318,0,0,1,.8378-.7185l.0081-.6476C50.9523,54.9,50.66,55.114,50.4055,55.3289Z" fill="#fff"/><path d="M51.1162,66.2106l.0027-.2191c-.43-.8838-.2467-1.1928.0185-1.4715l.0087-.7051a1.7888,1.7888,0,0,0-.626.6858A2.08,2.08,0,0,0,51.1162,66.2106Z" fill="#fff"/><path d="M52.2571,40.1426c-1.7739.0651-4.3175,1.3742-4.2973,3.9633.2791,3.0595,6.7632,2.649,6.5407,6.6018-.0666,3.016-4.7,4.0583-4.9956,5.8994-.0017-.0054-.0007.0554-.005-.0042.1013,1.7295,3.602,2.3923,3.5843,4.7287.0236,1.8908-2.6818,2.3932-2.61,3.4246a2.6739,2.6739,0,0,0,1.7458,2.25c-.5432.1032-2.5232-1.0457-2.5765-2.2562.0752-1.7,2.3867-2.0369,2.3558-3.4231-.0975-1.5776-3.5882-2.1288-3.8321-4.5629-.272-2.7159,4.6968-3.9014,4.7471-6.1446.0634-2.4166-6.3163-1.9286-6.8106-6.3853-.193-4.1707,4.0389-6.6322,6.3306-6.1336,2.7416,1.0695,2.55,2.2793,1.4783,2.2322C54.0513,40.69,53.5482,40.5939,52.2571,40.1426Z" fill="#fdfdfd"/><path d="M52.8549,38.9771a.4282.4282,0,0,1-.6262-.2779.4282.4282,0,0,1,.6262.2779Z" fill="#909090"/></svg>