<svg xmlns="http://www.w3.org/2000/svg" viewBox="0 0 37.92 37.92"><defs><style>.cls-1{fill:#971c1f;}.cls-2{fill:#ccc;}.cls-3{fill:#791619;}.cls-4,.cls-5{fill:#fff;}.cls-5{fill-rule:evenodd;}</style></defs><title>menu 3</title><g id="Camada_2" data-name="Camada 2"><g id="Camada_1-2" data-name="Camada 1"><circle class="cls-1" cx="18.96" cy="18.96" r="18.96" transform="translate(-7.14 25.12) rotate(-58.28)"/><path class="cls-2" d="M20.16,37.92h0Zm-.12,0h0Zm-.48,0h0Zm-.12,0h0Zm-.12,0h0Zm-.12,0h0Zm-.12,0h0Zm-.12,0Z"/><path class="cls-3" d="M19,37.92h-.12l-8.76-8.76L15,20.28h2.76l-2-1.56L22,8.28,37.8,21.6a18.88,18.88,0,0,1-17,16.2h0l-.12.12H19Z"/><path class="cls-4" d="M24.48,12.72a6.33,6.33,0,0,1-6,6.36,6.33,6.33,0,0,1-6-6.36,5.82,5.82,0,0,1,6-5.76A5.82,5.82,0,0,1,24.48,12.72Z"/><path class="cls-5" d="M17.16,19.92H19.8a8.14,8.14,0,0,1,8,8.16.57.57,0,0,1-.6.6H9.72a.57.57,0,0,1-.6-.6A8.14,8.14,0,0,1,17.16,19.92Z"/></g></g></svg>