<svg xmlns="http://www.w3.org/2000/svg" viewBox="0 0 94.6466 96.027"><title>Ativo 6300</title><ellipse cx="47.3233" cy="48.0135" rx="47.3233" ry="48.0135" fill="#434621"/><path d="M93.4782,58.6,67.8557,29l-4,2-4-5-1.4743,7.3615L55.8557,29l-16,1-3-4L35.115,32.8442,32.6642,28.706l-.7235,22.3062L43.49,62.73,26.8557,70l27.053,25.5543A47.625,47.625,0,0,0,93.4782,58.6Z" opacity="0.1"/><path d="M36.9915,37.2909h-2.46V25.7781h2.406a.0538.0538,0,0,1,.0538.0539Z" fill="#fff" fill-rule="evenodd"/><rect x="57.6645" y="25.7781" width="2.4596" height="11.5128" fill="#fff"/><path d="M67.0231,28.7192H61.96c.0981,1.023.0992,2.197.0992,3.4421,0,3.9892-.0073,7.2218-3.1985,7.2218s-3.0951-3.2326-3.0951-7.2218c0-1.2451-.0083-2.4191.0754-3.4421H38.8521c.0981,1.023.0991,2.197.0991,3.4421,0,3.9892-.0072,7.2218-3.1984,7.2218s-3.094-3.2326-3.094-7.2218c0-1.2451-.01-2.4191.0743-3.4421H27.6246a.7676.7676,0,0,0-.7676.7676V69.4712a.78.78,0,0,0,.7777.7777H67.0231a.7676.7676,0,0,0,.7676-.7676V29.4868A.77.77,0,0,0,67.0231,28.7192Z" fill="#fff"/></svg>