<svg xmlns="http://www.w3.org/2000/svg" viewBox="0 0 37.92 37.92"><defs><style>.cls-1{fill:#971c1f;}.cls-2{fill:#791619;}.cls-3{fill:#fff;}</style></defs><title>menu 1</title><g id="Camada_2" data-name="Camada 2"><g id="Camada_1-2" data-name="Camada 1"><circle class="cls-1" cx="18.96" cy="18.96" r="18.96" transform="translate(-5.81 29.22) rotate(-67.5)"/><path class="cls-2" d="M20.52,37.8,10.8,28.2l1.32-1.32L7,21.72,20,9.24,36.72,25.68A19,19,0,0,1,20.52,37.8Z"/><path class="cls-3" d="M30.84,19.92a1.46,1.46,0,0,1,0,1.92,1.25,1.25,0,0,1-1.92,0L28.08,21v4.68A3.81,3.81,0,0,1,27,28.32a3.91,3.91,0,0,1-2.76,1.2H13.68A3.44,3.44,0,0,1,11,28.32a3.44,3.44,0,0,1-1.2-2.64V21L9,21.84a1.25,1.25,0,0,1-1.92,0,1.46,1.46,0,0,1,0-1.92L18,9.12a1.25,1.25,0,0,1,1.92,0Zm-5.52-1.68L19,12,12.6,18.24v7.44a.73.73,0,0,0,.36.72.86.86,0,0,0,.72.36H24.24a1.09,1.09,0,0,0,.84-.36,1,1,0,0,0,.24-.72Z"/></g></g></svg>