<svg xmlns="http://www.w3.org/2000/svg" viewBox="0 0 778.51 179.37"><defs><style>.cls-1,.cls-2{fill:#fff;}.cls-2{fill-rule:evenodd;}</style></defs><title>logo branco</title><g id="Camada_2" data-name="Camada 2"><g id="Camada_1-2" data-name="Camada 1"><polygon class="cls-1" points="65.26 119.09 64.15 116.5 43.81 62.7 23.48 116.5 22.37 119.09 2.96 170.48 0 170.48 49.92 38.11 54.35 38.11 104.64 170.48 121.09 170.48 121.09 173.07 64.15 173.07 64.15 170.48 84.67 170.48 65.26 119.09 65.26 119.09"/><path class="cls-1" d="M228.9,169.56a52,52,0,0,1-19.4,3.51v-2.59q9.66,0,15.89-3a28.44,28.44,0,0,0,10-7.39,28.07,28.07,0,0,0,5.18-9.8,37.34,37.34,0,0,0,1.48-9.8,23.67,23.67,0,0,0-2.41-11.09,25.3,25.3,0,0,0-6.1-7.76,32.22,32.22,0,0,0-8.13-5.37,53,53,0,0,0-8.14-3.14L196,106.7q-15-4.62-22.74-12.2-7.58-7.59-7.58-20.34a39.17,39.17,0,0,1,3-15.34A36,36,0,0,1,177,46.43a38.92,38.92,0,0,1,12.76-8.13,44.9,44.9,0,0,1,16.45-3l3,.06v2.53h-3a42.22,42.22,0,0,0-9.8,1.29,29.5,29.5,0,0,0-10,4.07,26,26,0,0,0-7.77,7.76q-3,4.81-3,12.2a20.35,20.35,0,0,0,2.4,10.17,25.67,25.67,0,0,0,6.1,7,46.83,46.83,0,0,0,8.51,4.8q4.8,1.86,9.61,3.33l22.37,7c2.34.74,5.3,1.72,8.87,3a38.26,38.26,0,0,1,10.35,5.54,30.56,30.56,0,0,1,8.69,9.8q3.7,6.11,3.7,15.53a42.66,42.66,0,0,1-3.33,16.64,41.29,41.29,0,0,1-9.24,13.86,48,48,0,0,1-14.79,9.62Z"/><path class="cls-1" d="M301.94,41.07a59.7,59.7,0,0,1,24.6-5.71v2.57a41.06,41.06,0,0,0-16.82,3.14,33.79,33.79,0,0,0-11.84,8.13A39.53,39.53,0,0,0,290.11,61a73.59,73.59,0,0,0-4.26,14.23,122.38,122.38,0,0,0-2,15.16q-.37,7.57-.37,14.42,0,19.41,3.15,32.17t8.68,20.15A30.79,30.79,0,0,0,309,167.52a49.87,49.87,0,0,0,17.57,3l.08,2.59a63.36,63.36,0,0,1-22.45-4.25A61.84,61.84,0,0,1,283.45,155a80.19,80.19,0,0,1-15.16-21.44q-6.09-12.39-6.1-28.66a71.68,71.68,0,0,1,18.86-48.62,65.56,65.56,0,0,1,20.89-15.16Z"/><path class="cls-1" d="M362.89,165.08c0-4.55-2.1-6.82-8.87-9.27-6.12-2.18-7.25-3.62-7.25-6.16s1.74-4.5,5.94-4.5a10.67,10.67,0,0,1,7.34,2.84l2.19-2.66a13.67,13.67,0,0,0-9.31-3.28c-5.73,0-9.57,2.93-9.57,7.82,0,4.42,2.23,6.56,8.82,8.92,5.6,2,7.3,3.62,7.3,6.46,0,3.24-2.53,5.25-6.6,5.25a11.63,11.63,0,0,1-8.12-3.67l-2.28,2.53a14.57,14.57,0,0,0,10.27,4.24c6.38,0,10.14-3.72,10.14-8.52Z"/><path class="cls-2" d="M392.33,173.12l-10.61-30.59H378l-10.62,30.59h3.5l2.66-7.78h12.63l2.62,7.78Zm-7.25-10.88H374.55l3.36-10c.75-2.14,1.62-4.89,1.93-6.11.3,1.27,1.18,4,1.88,6l3.36,10.05Z"/><path class="cls-2" d="M416.8,134.23h-4.67l-4.5,7h2.57l6.6-7Zm3.67,26.39V142.53h-3.41v18.18c0,6.6-2.09,9.79-7.38,9.79s-7.82-3.28-7.82-9.88V142.53h-3.41v18.18c0,8.47,3.76,12.89,11.06,12.89s11-4.5,11-13Z"/><path class="cls-2" d="M450.31,157.61c0-10.49-5.89-15.08-13.93-15.08h-8.09v30.59h7.47c8.18,0,14.55-4.42,14.55-15.51Zm-3.4.13c0,8.78-4.11,12.27-10.71,12.27h-4.5V145.63h4.41c7,0,10.8,4.29,10.8,12.11Z"/><polygon class="cls-1" points="476.18 173.12 476.18 170.01 460.45 170.01 460.45 158.35 469.19 158.35 469.19 155.25 460.45 155.25 460.45 145.63 475.52 145.63 475.52 142.53 457.04 142.53 457.04 173.12 476.18 173.12 476.18 173.12"/><path class="cls-2" d="M516.06,157.61c0-10.49-5.9-15.08-13.94-15.08H494v30.59h7.47c8.17,0,14.55-4.42,14.55-15.51Zm-3.41.13c0,8.78-4.1,12.27-10.7,12.27h-4.5V145.63h4.41c7,0,10.79,4.29,10.79,12.11Z"/><path class="cls-2" d="M546.86,157.78c0-9.22-5.06-15.73-12.67-15.73s-12.71,6.6-12.71,15.82,5,15.73,12.63,15.73,12.75-6.6,12.75-15.82Zm-3.4.09c0,7.69-3.94,12.63-9.22,12.63s-9.35-5-9.35-12.72,3.89-12.63,9.17-12.63,9.4,5,9.4,12.72Z"/><path class="cls-1" d="M586,168.53l-2.36-2.05c-2,2.53-4.24,4-7.56,4-5.16,0-9.05-5.25-9.05-12.72s3.76-12.63,9-12.63c3.32,0,5.15,1.18,7.12,3.85l2.71-2.06a11.23,11.23,0,0,0-9.75-4.89c-7.38,0-12.49,6.73-12.49,15.82S568.52,173.6,576,173.6a12,12,0,0,0,10-5.07Z"/><polygon class="cls-1" points="611.52 173.12 611.52 170.01 595.79 170.01 595.79 158.35 604.52 158.35 604.52 155.25 595.79 155.25 595.79 145.63 610.86 145.63 610.86 142.53 592.38 142.53 592.38 173.12 611.52 173.12 611.52 173.12"/><path class="cls-1" d="M640.05,173.12V142.53h-3.28V167.7c-.39-.79-1.53-2.8-2.18-3.85l-13.24-21.32H618v30.59h3.27V148.34c.4.79,1.53,2.8,2.19,3.85l13.37,20.93Z"/><polygon class="cls-1" points="667.62 145.63 667.62 142.53 646.21 142.53 646.21 145.63 655.21 145.63 655.21 173.12 658.62 173.12 658.62 145.63 667.62 145.63 667.62 145.63"/><path class="cls-2" d="M695.41,151.18c0-5.9-4.15-8.65-9.53-8.65h-12.1v30.59h3.41v-13h7.25l6.56,13h3.93l-6.73-13.29c4.37-.91,7.21-3.88,7.21-8.65Zm-3.41.13c0,3.85-2.14,5.73-6.68,5.73h-8.13V145.63h8.56c4.07,0,6.25,1.93,6.25,5.68Z"/><path class="cls-2" d="M725.64,157.78c0-9.22-5.06-15.73-12.67-15.73s-12.71,6.6-12.71,15.82,5,15.73,12.63,15.73,12.75-6.6,12.75-15.82Zm-3.4.09c0,7.69-3.94,12.63-9.22,12.63s-9.35-5-9.35-12.72,3.89-12.63,9.17-12.63,9.4,5,9.4,12.72Z"/><path class="cls-2" d="M365.73,97.82c0-5.9-4.15-8.65-9.52-8.65H344.1v30.58h3.41v-13h7.25l6.56,13h3.93l-6.73-13.28c4.37-.92,7.21-3.89,7.21-8.65Zm-3.41.13c0,3.85-2.14,5.72-6.68,5.72h-8.13V92.27h8.56c4.07,0,6.25,1.92,6.25,5.68Z"/><polygon class="cls-1" points="391.64 119.75 391.64 116.65 375.91 116.65 375.91 104.99 384.65 104.99 384.65 101.88 375.91 101.88 375.91 92.27 390.99 92.27 390.99 89.17 372.5 89.17 372.5 119.75 391.64 119.75 391.64 119.75"/><path class="cls-1" d="M419.3,107.56v-3h-8.83v3.15H416V108c0,6-2.8,9.13-7.91,9.13S399,111.89,399,104.42s3.76-12.63,9-12.63c3.33,0,5.16,1.18,7.13,3.85l2.71-2.06a11.23,11.23,0,0,0-9.75-4.89c-7.38,0-12.49,6.73-12.49,15.82s4.89,15.73,12.36,15.73c6.47,0,11.32-4.24,11.32-12.68Z"/><polygon class="cls-1" points="429.34 119.75 429.34 89.17 425.94 89.17 425.94 119.75 429.34 119.75 429.34 119.75"/><path class="cls-2" d="M461.68,104.42c0-9.22-5.07-15.73-12.67-15.73s-12.72,6.6-12.72,15.82,5,15.73,12.63,15.73,12.76-6.6,12.76-15.82Zm-3.41.09c0,7.69-3.93,12.62-9.22,12.62s-9.35-5-9.35-12.71,3.89-12.63,9.18-12.63,9.39,5,9.39,12.72Z"/><path class="cls-1" d="M490.42,119.75V89.17h-3.28v25.17c-.39-.79-1.53-2.8-2.18-3.85L471.72,89.17H468.4v30.58h3.28V95c.39.79,1.53,2.8,2.18,3.84l13.37,20.93Z"/><path class="cls-2" d="M521.75,119.75,511.14,89.17h-3.76l-10.62,30.58h3.5l2.66-7.77h12.63l2.62,7.77Zm-7.25-10.88H504l3.36-10c.75-2.14,1.62-4.89,1.93-6.12.3,1.27,1.18,4,1.88,6l3.36,10.05Z"/><polygon class="cls-1" points="546.62 119.75 546.62 116.65 531.5 116.65 531.5 89.17 528.09 89.17 528.09 119.75 546.62 119.75 546.62 119.75"/><path class="cls-2" d="M586.58,104.24c0-10.48-5.9-15.07-13.94-15.07h-8.08v30.58H572c8.17,0,14.55-4.41,14.55-15.51Zm-3.41.13c0,8.79-4.1,12.28-10.7,12.28H568V92.27h4.41c7,0,10.79,4.28,10.79,12.1Z"/><polygon class="cls-1" points="612.45 119.75 612.45 116.65 596.72 116.65 596.72 104.99 605.46 104.99 605.46 101.88 596.72 101.88 596.72 92.27 611.79 92.27 611.79 89.17 593.31 89.17 593.31 119.75 612.45 119.75 612.45 119.75"/><path class="cls-2" d="M367.39,66.39,356.77,35.81H353L342.4,66.39h3.49l2.67-7.78h12.63l2.62,7.78Zm-7.25-10.88H349.61l3.36-10c.74-2.14,1.62-4.89,1.92-6.12.31,1.27,1.18,4,1.88,6l3.37,10Z"/><path class="cls-2" d="M395.75,50.88c0-10.49-5.9-15.07-13.94-15.07h-8.08V66.39h7.47c8.17,0,14.55-4.41,14.55-15.51Zm-3.41.13c0,8.78-4.11,12.28-10.71,12.28h-4.5V38.91h4.42c7,0,10.79,4.28,10.79,12.1Z"/><path class="cls-1" d="M428.87,66.39V35.81h-3.72l-7.3,18.3c-.7,1.79-1.79,4.63-2.18,6-.35-1.27-1.44-4.11-2.19-6l-7.2-18.3h-3.81V66.39h3.28v-24a50.32,50.32,0,0,0,1.79,5.07l8,19.71,8.17-19.71c.66-1.62,1.53-3.89,1.84-5.07v24Z"/><polygon class="cls-1" points="440.52 66.39 440.52 35.8 437.12 35.8 437.12 66.39 440.52 66.39 440.52 66.39"/><path class="cls-1" d="M470.81,66.39V35.81h-3.28V61c-.4-.78-1.53-2.79-2.19-3.84L452.1,35.81h-3.32V66.39h3.28V41.62c.39.78,1.53,2.79,2.18,3.84l13.38,20.93Z"/><polygon class="cls-1" points="482.48 66.39 482.48 35.8 479.07 35.8 479.07 66.39 482.48 66.39 482.48 66.39"/><path class="cls-1" d="M509.52,58.35c0-4.54-2.1-6.81-8.87-9.26-6.12-2.19-7.25-3.63-7.25-6.16s1.75-4.5,5.94-4.5a10.62,10.62,0,0,1,7.34,2.84l2.19-2.67a13.72,13.72,0,0,0-9.31-3.28c-5.73,0-9.57,2.93-9.57,7.83,0,4.41,2.23,6.55,8.83,8.91,5.59,2,7.29,3.63,7.29,6.47,0,3.23-2.53,5.24-6.59,5.24a11.6,11.6,0,0,1-8.13-3.67l-2.27,2.53a14.53,14.53,0,0,0,10.26,4.24c6.38,0,10.14-3.71,10.14-8.52Z"/><polygon class="cls-1" points="535.21 38.91 535.21 35.8 513.8 35.8 513.8 38.91 522.8 38.91 522.8 66.39 526.21 66.39 526.21 38.91 535.21 38.91 535.21 38.91"/><path class="cls-2" d="M563,44.46c0-5.9-4.16-8.65-9.53-8.65h-12.1V66.39h3.4v-13H552l6.55,13h3.93l-6.72-13.28c4.36-.92,7.21-3.89,7.21-8.65Zm-3.41.13c0,3.84-2.14,5.72-6.69,5.72h-8.13V38.91h8.57c4.06,0,6.25,1.92,6.25,5.68Z"/><path class="cls-2" d="M592.53,66.39,581.91,35.81h-3.75L567.54,66.39H571l2.67-7.78h12.63L589,66.39Zm-7.25-10.88H574.75l3.36-10c.74-2.14,1.62-4.89,1.93-6.12.3,1.27,1.17,4,1.87,6l3.37,10Z"/><path class="cls-1" d="M619.93,61.8l-2.36-2c-2,2.53-4.24,4-7.56,4-5.16,0-9-5.24-9-12.72s3.76-12.62,9-12.62c3.33,0,5.16,1.18,7.13,3.84l2.71-2.05a11.23,11.23,0,0,0-9.75-4.9c-7.38,0-12.49,6.73-12.49,15.82,0,8.35,4.23,14.77,10.83,15.64l-1,3.11,1.57.61a3,3,0,0,1,2.1-.79,1.3,1.3,0,0,1,1.4,1.44c0,1-.66,1.88-2.93,1.88a7.29,7.29,0,0,1-4-1.18l-.83,1.4a9.5,9.5,0,0,0,5.16,1.57c2.79,0,5.2-1,5.2-3.8a2.87,2.87,0,0,0-2.93-3,4.25,4.25,0,0,0-2.4.61l.56-1.75a12,12,0,0,0,9.62-5.07Z"/><path class="cls-2" d="M644.88,28h-2.71c-.26,2-.79,2.93-1.71,2.93S639.11,30.65,637,29a5,5,0,0,0-3.23-1.13c-2.36,0-4.46,1.79-4.46,5.68H632c.26-2.27.87-2.93,1.7-2.93s1.32.31,3.46,1.92a5,5,0,0,0,3.23,1.14c2.36,0,4.46-1.79,4.46-5.68Zm4.72,38.36L639,35.81h-3.76L624.6,66.39h3.5l2.66-7.78h12.63L646,66.39Zm-7.26-10.88H631.81l3.37-10c.74-2.14,1.61-4.89,1.92-6.12.3,1.27,1.18,4,1.88,6l3.36,10Z"/><path class="cls-2" d="M680,51.05c0-9.21-5.07-15.73-12.68-15.73s-12.71,6.6-12.71,15.82,5,15.73,12.63,15.73S680,60.27,680,51.05Zm-3.41.09c0,7.69-3.93,12.63-9.22,12.63s-9.35-5-9.35-12.72,3.89-12.62,9.17-12.62,9.4,5,9.4,12.71Z"/><path class="cls-1" d="M112.69,102.45h-9.92v-2.4h9.72a43.34,43.34,0,0,0,8.15-1.48,16.18,16.18,0,0,0,7.21-4.44,21.82,21.82,0,0,0,4.81-8.87,49.82,49.82,0,0,0,1.66-14.05q0-9.61-2.59-15.35A19.75,19.75,0,0,0,125.27,47a20.72,20.72,0,0,0-8.88-3.89c-3.2-.61-6.41-.36-9.61-.36-2.22,0-4.5-.13-6.84,0-1.54,0-2.92-.12-4.16,0H75.72v-3h27.92c1.47-.13,3-.19,4.43-.19a125.41,125.41,0,0,1,19.23,1.3,31.36,31.36,0,0,1,15.53,6.84A27.65,27.65,0,0,1,151.89,59a29.52,29.52,0,0,1,2.77,11.83,31.23,31.23,0,0,1-1.11,7.21,23,23,0,0,1-4.44,8.87,33.67,33.67,0,0,1-9.8,8.32q-6.47,3.69-17.19,5c2,.62,4.62,1.11,7.95,1.85a42.17,42.17,0,0,1,10.36,3.33,36.44,36.44,0,0,1,9.79,6.47,21.1,21.1,0,0,1,6.29,10.17,40.69,40.69,0,0,1,1.48,8.5c.37,3.08.61,6.29.74,9.61s.43,6.53.55,9.62a54.06,54.06,0,0,0,1.11,7.76,28.62,28.62,0,0,0,3.51,8.69c1.61,2.59,4.19,3.88,7.77,3.88a15,15,0,0,0,5-.92,12.35,12.35,0,0,0,4.62-3l1.67,2-2.22,1.67a17.23,17.23,0,0,1-3,1.48,19.37,19.37,0,0,1-4.62,1.1,31.61,31.61,0,0,1-6.47.56,36,36,0,0,1-12.39-1.85,18.77,18.77,0,0,1-7.77-5.36,24.9,24.9,0,0,1-4.43-8.87,80.67,80.67,0,0,1-1.85-12.39l-1.3-16.82q-.74-9.25-3.69-14.42a20.05,20.05,0,0,0-7-7.58,18.24,18.24,0,0,0-8.13-2.78,58.14,58.14,0,0,0-7.4-.55Z"/><path class="cls-1" d="M82,15.82A15.83,15.83,0,1,1,97.83,31.64,15.82,15.82,0,0,1,82,15.82Z"/><path class="cls-1" d="M728.64,173.3V169h4.27v4.27a7.59,7.59,0,0,1-.84,3.82,5.44,5.44,0,0,1-2.66,2.25l-1-1.62a3.57,3.57,0,0,0,1.76-1.54,6.69,6.69,0,0,0,.63-2.91Z"/><polygon class="cls-1" points="744.56 173.31 744.56 142.45 748.05 142.45 748.05 173.31 744.56 173.31 744.56 173.31"/><path class="cls-2" d="M755.43,173.3V142.45h11.26a27.51,27.51,0,0,1,4.66.29,9.19,9.19,0,0,1,3.77,1.42,7.43,7.43,0,0,1,2.46,3A9.89,9.89,0,0,1,776,157.86q-2.47,2.69-9,2.69H759.2V173.3ZM759.2,157h7.91c2.61,0,4.47-.48,5.56-1.46a5.19,5.19,0,0,0,1.65-4.11,5.51,5.51,0,0,0-1-3.28,4.57,4.57,0,0,0-2.55-1.81A17.38,17.38,0,0,0,767,146H759.2V157Z"/></g></g></svg>