<svg xmlns="http://www.w3.org/2000/svg" viewBox="0 0 778.51 179.37"><defs><style>.cls-1{fill:#fff;}.cls-2,.cls-3{fill:#145400;}.cls-3{fill-rule:evenodd;}.cls-4{fill:#b50000;}</style></defs><title>LOGO A CORES</title><g id="Camada_2" data-name="Camada 2"><g id="Camada_1-2" data-name="Camada 1"><path class="cls-1" d="M18.59,131.37q-2.32,5.94-4.79,11.87c-3.25,7.87-7.25,22.55-13,27.22l14.53-39.09Zm71.45,0c4.7,12.23,9.33,24.43,13.77,36.5,2.13,5.88,14.09.19,16.71,5.48H64.75v-2.71H83.86s.73-.59.74-1L70,131.37Zm68.12,0c-.19,10.14-.06,39.18,13.93,39.18a25.07,25.07,0,0,0,10.38-2.83c-5.13,6.53-10,5.83-15.88,5.83-8.12,0-19.47-2.7-22.72-11.33-3.58-9.46-2.52-20.6-3.06-30.85Zm98.41,0c-.69,22.1-18.82,42.17-42.6,42H209.6c6.23-4.36,15-3.71,21.21-8.09,9.37-6.5,11.78-17,11.78-24.71a25.64,25.64,0,0,0-1.6-9.19Zm29,0c3.49,20.1,13.15,40,39.78,39.86l1.19,2.2h-5.29c-2.5.12-9.44-1.79-14.31-3.67-21.37-8.61-33.68-22.91-39.68-38.38Zm427.05,14.18c-5.37,0-9,9.62-9,13,0,4.62,3.5,12,9.5,12,5.75,0,9.5-4.75,9.5-12,0-3.38-2-13-10-13Zm.5-3c11.38,0,12.5,11.25,12.5,16,0,8.62-2.75,15-12.5,15-9,0-12.5-9-12.5-15,0-7.38,3.5-16,12.5-16Zm-35.35,3.07v11.85h10.47c2.11-1,4.38-3.42,4.38-5.92,0-1.38-3.37-6-7.62-5.93Zm-4-3H685c5.5-.07,10.62,2.93,10.62,8.93,0,5.62-4.79,7.83-7,8.66,2,3.61,4,8.61,5.92,13.15-5.64-1.2-6-8.69-10.57-12.9h-6.47v12.93h-3.71V142.62Zm-27,.08h20.68v2.72h-9v28h-2.72v-28h-9V142.7Zm-28-.08c7.42,3.48,12,16.14,17.36,23.93.61-.86.46-2.48-.4-23.85h4.72v30.74h-3.62l-15.24-23.91v23.86h-2.82V142.62Zm-26,.08h17.69v2.72h-15V155.7h9v2.72h-9V169.7h16v3.71h-18.7V142.7Zm-16.15-.15c2.5,0,5.78,2.08,9,4.37a4.35,4.35,0,0,1-1.41,2.62c-2.3-1-5.08-4-7.58-4-8.25,0-9,8.62-9,12.5,0,6.75,1.75,12.5,9,12.5,2.5,0,5.38-1,9.94-1.75-4.84,5.23-7.06,4.75-10.44,4.75-7.87,0-12.5-9-12.5-15,0-7.38,4.5-16,13-16Zm-42,3c-5.5,0-10,7.25-10,12.5s3.63,12.5,9.5,12.5,9.5-4.75,9.5-12c0-.75-1.25-13-9-13Zm-.5-3c11.38,0,12.5,11.25,12.5,16,0,8.62-2.75,15-12.5,15-8.87,0-12.5-9-12.5-15,0-7.38,4.63-16,12.5-16Zm-36.36,3.07v24.85H504c7.12.08,8.62-7.3,8.62-11.92,0-6-2.12-13-11.62-12.93Zm-3-3H505c7.62-.07,11.62,11.18,11.62,15.93,0,3.25-3.75,15-9.62,14.92H494.74V142.62Zm-38,.08h18.69v2.72h-15V155.7h9v2.72h-9V169.7h16v3.71h-19.7V142.7Zm-25,2.92v24.85H438c7.12.08,8.62-4.67,8.62-11.92,0-6-.75-13-10.62-12.93Zm-3-3H439c2.37-.07,10.6,7.27,11.22,9.27s.4,3.16.4,5.66c0,4.62-2.75,16-9.62,15.92H428.74V142.62Zm-30-.05c4.74,6.33,3.82,15.35,3.82,23.48a4.47,4.47,0,0,0,1.68,3.16c1.91.35,3.32,1.34,5.82,1.34,2.75,0,7.5-1.13,7.58-5.38V142.71h2.86v23.21c.06,7.5-10.19,7.63-10.94,7.63-5.25,0-11-2.88-10.82-9.38v-21.6Zm-18.64,5a63.34,63.34,0,0,0-4.44,14.79h9.82c-1.95-5.48-3.93-10.41-5.38-14.79Zm-2.34-4.9h3.61c4.16,10.21,8.17,20.25,11.09,30.72h-3.77c-.13-9.57-2.63-7.82-8.63-7.82-4.5,0-6.64-1.5-9,7.48a4.2,4.2,0,0,1-2.38.32c2.92-10.45,5.92-20.45,9.1-30.7Zm-23.7-.1c2.13,0,8.61-.24,6.66,6-3-2.08-4.66-3-7.16-3-1.75,0-3.89,1.6-7,4.63,1.88,7.25,10.61,6.25,14.48,9.75,1.5,1.37,1.54,3.62,1.54,6.12,0,8.25-5.5,7.5-9.5,7.5-1.75,0-8.56.23-10.49-3.58l2.44-2.42c2.28,1,5.55,3,8,3,4.13,0,6.5-.5,6.5-4.5,0-6.5-16-7-16-15,0-5.38,5.13-8.5,10.5-8.5Zm58.74-7.83h3.7a12.16,12.16,0,0,1-7.86,6.59,43.15,43.15,0,0,0,4.16-6.59ZM728.64,173.3V169h4.27v4.27a7.59,7.59,0,0,1-.84,3.82,5.44,5.44,0,0,1-2.66,2.25l-1-1.62a3.57,3.57,0,0,0,1.76-1.54,6.69,6.69,0,0,0,.63-2.91Zm15.92,0V142.45h3.49V173.3Zm10.87,0V142.45h11.26a27.51,27.51,0,0,1,4.66.29,9.3,9.3,0,0,1,3.78,1.42,7.57,7.57,0,0,1,2.45,3A9.89,9.89,0,0,1,776,157.86q-2.47,2.69-9,2.69H759.2V173.3ZM759.2,157h7.91c2.61,0,4.47-.48,5.56-1.46a5.18,5.18,0,0,0,1.65-4.1,5.52,5.52,0,0,0-1-3.29,4.57,4.57,0,0,0-2.55-1.81A17.38,17.38,0,0,0,767,146H759.2V157Z"/><path class="cls-1" d="M15.34,131.37,49.81,38.64h4.57c4.17,9.2,7.81,19.48,11.43,29.23,7.77,21,16.09,42.31,24.23,63.5H70L44.09,63.55c-2.53,7.67-5.91,15.68-8.91,23.68-5.43,14.13-10.72,29.14-16.59,44.14Zm125.47,0c-.61-11.56-3.27-22-16.91-27.61-6.37-2.63-14.89-1.22-21.3-2.77,28.9,1.68,32-12.82,32-29.44,0-18-7.62-29-25.62-29.06H75.75V39.62H118c18.87-.07,36.62,13.68,36.62,32.93,0,17.5-13.69,26.62-32,28.56,4.69,1.47,10.78,2.09,15.66,3.71,4,1.25,8.35,4.68,12.1,7.05,5.25,3.13,7,12.31,7.85,16.06,0,.17,0,1.43,0,3.43Zm100.18,0a23.32,23.32,0,0,0-10.16-11.65c-18.87-11.5-44-6.24-60.89-28.37-3.87-5-4.35-15.8-4.35-18.3,0-19.63,23.48-40.74,42.75-36.81l1.19,2.06c-10.24-.76-33.94,6.87-33.94,23.75,0,40.75,81,19.75,81,68,0,.44,0,.87,0,1.31Zm26.24,0a70,70,0,0,1-4.64-25.32c0-25.38,15.64-59.74,50.39-67.86,1.87-.38,5.74-2.64,8.24-2.47h5.35c-4.14,4.32-8,2.81-12.34,4.06-6.5,1.87-20,10-22.41,18.4-7.25,25.25-8.23,27.24-8.23,44.87a167.22,167.22,0,0,0,2,28.32ZM593.74,89.7h17.69v2.72h-15v9.28h9v2.72h-9V116.7h16v2.71H593.74V89.7Zm-25,2.92v23.84h9.52c6-4.9,5.33-6.66,5.33-10.91,0-5.88-3.12-13-11.62-12.93Zm-4-3H575c9.5-.07,11.62,9.18,11.62,14.43,0,4,0,15.5-9.62,15.42H564.74V89.62Zm-37,.08h3.72v27h15v2.71H527.74V89.7Zm-17.61,3.85a63.19,63.19,0,0,0-4.44,14.81h8.79c-.9-5.41-2.9-10.43-4.35-14.81Zm-2.34-3.9h3.62c3.16,9.24,7.16,19.25,10,29.8-3.58-2-3.9-4.3-6.49-7H502.44c.15,1.59-.85,4.59-1,6.9h-3.78c2.95-9.47,6.94-19.46,10.12-29.71Zm-38.84,0c7.61,3.48,11,16.09,18.15,23.93.64-.86.49-2.55,3.14-24v29.92c-7-3.22-13.67-16.62-18.18-22.92-.61.85-.47,2.55-3.11,23V89.62Zm-19.86,2.93c-5,0-9.5,7.25-9.5,12.5s4.5,12.5,9.5,12.5c5.75,0,9.5-7.13,9.5-12.5s-3.75-12.5-9.5-12.5Zm0-3c9.75,0,12.5,8.87,12.5,15.5s-2.75,15.5-12.5,15.5c-9,0-12.5-8.75-12.5-15.5s3.5-15.5,12.5-15.5Zm-23.36.15h3.72v29.69h-3.72V89.7Zm-17.14-.15c1.88,0,7-.34,7.8,5.9-2.52-1-5.3-2.9-7.8-2.9-8.25,0-9,8.5-9,12.5,0,6.75,2.25,12.5,9.5,12.5,2.5,0,4.65-2.86,7.55-5.69v-3.58c-1.77-.79-5-1-6-3.54h8.85v8.18c.07,5.88-9.93,7.63-11.93,7.63-9.25,0-12-11.38-12-15.5,0-6.63,4.5-15.5,13-15.5Zm-35.85.15h17.69v2.72h-15v9.28h9v2.72h-9V116.7h16v2.71H372.74V89.7Zm-25,2.93v10.82h12.54a6.08,6.08,0,0,0,2.31-4.9c0-2.5-2.27-5-4.38-5.92Zm-3-3H359c5.5-.07,6.62,5.93,6.62,8.43,0,3,.8,6.47-7,9.14a48.64,48.64,0,0,1,6.9,12.18c-6-1.6-8-9.22-11.57-12.91h-6.46v12.93h-2.71V89.62ZM667.59,38.55c-7,0-9,7.12-9,13,0,4.75,1,12,9,12,7.75,0,9-4.5,9-12,0-.5-1.25-13-9-13Zm0-3c10.38,0,13,11.5,13,16,0,8.75-4.37,15-13,15-10.62,0-13-8.88-13-15,0-7.25,6-16,13-16Zm-29.46,5a70.26,70.26,0,0,0-5.44,14.81h9.79c-.9-5.41-2.9-10.43-4.35-14.81Zm-2.33-4.9h3.61l10,30.8c-3.72-2.25-4.28-5.67-6.49-8H630.44c.15,1.59-.85,4.59-1,7.9h-3.78L635.8,35.65Zm-25.21-.1a7.44,7.44,0,0,1,7.8,6.9c-2.52-1-5.3-3.9-7.8-3.9-7.87,0-10,10.75-10,13.5,0,8,4.75,11.5,10,11.5,2.5,0,5.34-1,8.91-1.79-2.27,3.35-7.61,4.56-8.92,5.4,1,1.66,4,1.66,5,3.77,0,1.12-1,2.12-1.13,3.38h-3.83l2-2.36c-1-1.68-4-1.9-3.94-2.9V66.4c-6.62,1.27-11.07-9.1-11.07-14.85,0-7.25,6-16,13-16Zm-29.4,5a67.51,67.51,0,0,0-5.5,14.78h9.82c-2-5.48-3.92-10.29-4.32-14.78Zm-2.39-4.92c1.29-.09,2.72.14,3.37,1.19,3.39,9,7.4,19.07,10.32,29.54h-3.77a17,17,0,0,0-2.86-7.92H573.44c.15,1.6-.85,4.6-1,7.91h-3.78L578.8,35.64Zm-34.06,3V50.46h11.53c3.65-3.17,3.32-2.16,3.32-5.41,0-1.88-1-6.5-6.62-6.43Zm-3-3H553c8.25-.07,10.62,5.43,10.62,9.93,0,3.62-4.2,5.9-8,8.57a55.17,55.17,0,0,1,6.95,12.15c-6.24,1.27-7-8.16-10.66-12.82h-7.44V66.39h-2.71V35.62Zm-28,.08h21.68v2.72h-9v28h-3.71v-28h-9V35.7Zm-14.66-.15c2.5,0,6.31,2.1,8.61,4l-1,2c-2.82-1-6.14-3-8.64-3-3.25,0-4.5,3-4.5,5,0,8.75,16,4.87,16,15,0,9.12-8,8-10,8-4,0-6.62.46-10-3.6,0,0,0-1.4,2.49-1.4s5.5,2,8,2c4.13,0,6.5-.38,6.5-4.5,0-8.13-16-3.63-16-15.5a8.17,8.17,0,0,1,8.5-8Zm-20.36.15h3.72V66.39h-3.72V35.7Zm-30,0h3.63c5.16,8.12,11.18,17.16,14.81,24.89.57-.86.42-2.55,3.06-25V66.48C464,63,458.31,50.33,453.05,42.55c-.6.85-.46,2.48.28,23.84h-4.6V35.66Zm-11,.05h2.73V66.39h-2.73V35.71Zm-34.83,0h3.5c3.16,8.2,7.16,17.2,9.69,24.88a100,100,0,0,1,12.25-25V66.39h-2.62L425,45.54c-2.45,6.7-5.45,14.7-8.92,22-3.46-8.33-6.44-16.28-10.07-24-.56.86-.42,2.56-3.11,23V35.67Zm-25.17,2.95V63.45h8.55c5.54-5.42,6.31-5.78,6.31-11.9,0-5.88-4.12-13-11.62-12.93Zm-4-3H381c10.75-.07,14.62,8.43,14.62,16.43,0,2.75-1.12,14.5-9.62,14.42H373.74V35.62Zm-18.66,4.93c-1.48,5.4-3.47,10.38-4.39,14.79h9.82c-1.95-5.48-3.93-10.41-5.43-14.79Zm-1.28-4.91c1.29-.09,2.72.14,3.37,1.19,3.39,9,7.4,19.07,10.32,29.54h-3.77c-.13-9.57-2.63-7.82-8.63-7.82-4.62,0-6.76-1.64-9,7.48a4.15,4.15,0,0,1-2.38.31l10.11-30.7Zm280.29-7.09c2.5,0,4,3,6.5,3s2.5-3,3.85-2.86v4.79h-6.22c-2.5.07-1.63-1.93-4.13-1.93s-2,2-4.42,1.76c1-2.49,1.92-4.76,4.42-4.76Zm-536-28c11,0,15.5,8.75,15.5,16,0,11.37-6.12,15-15.5,15-10.25,0-15.5-6.25-15.5-15,0-9.25,6.88-16,15.5-16Z"/><polygon class="cls-2" points="65.26 119.09 64.15 116.5 43.81 62.7 23.48 116.5 22.37 119.09 2.96 170.48 0 170.48 49.92 38.11 54.35 38.11 104.64 170.48 121.09 170.48 121.09 173.07 64.15 173.07 64.15 170.48 84.67 170.48 65.26 119.09 65.26 119.09"/><path class="cls-2" d="M228.9,169.55a51.78,51.78,0,0,1-19.4,3.52v-2.59q9.66,0,15.89-3a28.44,28.44,0,0,0,10-7.39,28.07,28.07,0,0,0,5.18-9.8,37.34,37.34,0,0,0,1.48-9.8,23.67,23.67,0,0,0-2.41-11.09,25.3,25.3,0,0,0-6.1-7.76,32.22,32.22,0,0,0-8.13-5.37,53,53,0,0,0-8.14-3.14L196,106.7q-15-4.62-22.74-12.2-7.58-7.59-7.58-20.34a39.17,39.17,0,0,1,3-15.34A36,36,0,0,1,177,46.43a38.92,38.92,0,0,1,12.76-8.13,44.9,44.9,0,0,1,16.45-3l3,.06v2.53h-3a42.22,42.22,0,0,0-9.8,1.29,29.5,29.5,0,0,0-10,4.07,25.86,25.86,0,0,0-7.76,7.76q-3,4.81-3,12.2a20.35,20.35,0,0,0,2.4,10.17,25.67,25.67,0,0,0,6.1,7,46.83,46.83,0,0,0,8.51,4.8q4.8,1.86,9.61,3.33l22.37,7c2.34.74,5.3,1.72,8.87,3a38.26,38.26,0,0,1,10.35,5.54,30.56,30.56,0,0,1,8.69,9.8q3.7,6.11,3.7,15.53a42.66,42.66,0,0,1-3.33,16.64,41.29,41.29,0,0,1-9.24,13.86,47.8,47.8,0,0,1-14.79,9.61Z"/><path class="cls-2" d="M301.94,41.07a59.7,59.7,0,0,1,24.6-5.71v2.57a40.89,40.89,0,0,0-16.82,3.14,33.79,33.79,0,0,0-11.84,8.13A39.53,39.53,0,0,0,290.11,61a73.59,73.59,0,0,0-4.26,14.23,122.38,122.38,0,0,0-2,15.16q-.36,7.57-.37,14.42,0,19.41,3.15,32.17t8.68,20.15A30.79,30.79,0,0,0,309,167.52a49.87,49.87,0,0,0,17.57,3l.08,2.59a63.36,63.36,0,0,1-22.45-4.25A61.84,61.84,0,0,1,283.45,155a80.19,80.19,0,0,1-15.16-21.44q-6.09-12.39-6.1-28.66a71.68,71.68,0,0,1,18.86-48.62,65.56,65.56,0,0,1,20.89-15.16Z"/><path class="cls-2" d="M362.89,165.08c0-4.55-2.1-6.82-8.87-9.27-6.12-2.18-7.25-3.62-7.25-6.16s1.74-4.5,5.94-4.5a10.67,10.67,0,0,1,7.34,2.84l2.19-2.66a13.67,13.67,0,0,0-9.31-3.28c-5.73,0-9.57,2.93-9.57,7.82,0,4.41,2.23,6.56,8.82,8.92,5.6,2,7.3,3.62,7.3,6.46,0,3.24-2.53,5.25-6.6,5.25a11.63,11.63,0,0,1-8.12-3.67l-2.28,2.53a14.57,14.57,0,0,0,10.27,4.24c6.38,0,10.14-3.72,10.14-8.52Z"/><path class="cls-3" d="M392.33,173.12l-10.61-30.59H378l-10.62,30.59h3.5l2.66-7.78h12.63l2.62,7.78Zm-7.25-10.88H374.55l3.37-10c.74-2.14,1.61-4.89,1.92-6.11.3,1.26,1.18,4,1.88,6l3.36,10.05Z"/><path class="cls-3" d="M416.8,134.23h-4.67l-4.5,7h2.57l6.6-7Zm3.67,26.39V142.53h-3.41v18.18c0,6.6-2.09,9.79-7.38,9.79s-7.82-3.28-7.82-9.88V142.53h-3.41v18.18c0,8.47,3.76,12.89,11.06,12.89s11-4.5,11-13Z"/><path class="cls-3" d="M450.31,157.61c0-10.49-5.89-15.08-13.93-15.08h-8.09v30.59h7.47c8.18,0,14.55-4.42,14.55-15.51Zm-3.4.13c0,8.78-4.11,12.28-10.71,12.28h-4.5V145.63h4.41c7,0,10.8,4.29,10.8,12.11Z"/><polygon class="cls-2" points="476.18 173.12 476.18 170.01 460.45 170.01 460.45 158.35 469.19 158.35 469.19 155.25 460.45 155.25 460.45 145.63 475.52 145.63 475.52 142.53 457.04 142.53 457.04 173.12 476.18 173.12 476.18 173.12"/><path class="cls-3" d="M516.06,157.61c0-10.49-5.9-15.08-13.94-15.08H494v30.59h7.47c8.17,0,14.55-4.42,14.55-15.51Zm-3.41.13c0,8.78-4.1,12.28-10.7,12.28h-4.5V145.63h4.41c7,0,10.79,4.29,10.79,12.11Z"/><path class="cls-3" d="M546.86,157.78c0-9.22-5.06-15.73-12.67-15.73s-12.71,6.6-12.71,15.82,5,15.73,12.63,15.73,12.75-6.6,12.75-15.82Zm-3.4.09c0,7.69-3.94,12.63-9.22,12.63s-9.35-5-9.35-12.72,3.89-12.63,9.17-12.63,9.4,5,9.4,12.72Z"/><path class="cls-2" d="M586,168.53l-2.36-2.05c-2,2.53-4.24,4-7.56,4-5.16,0-9.05-5.25-9.05-12.72s3.76-12.63,9-12.63c3.32,0,5.15,1.18,7.12,3.85l2.71-2.06a11.23,11.23,0,0,0-9.75-4.89c-7.38,0-12.49,6.73-12.49,15.82S568.52,173.6,576,173.6a12,12,0,0,0,10-5.07Z"/><polygon class="cls-2" points="611.52 173.12 611.52 170.01 595.79 170.01 595.79 158.35 604.52 158.35 604.52 155.25 595.79 155.25 595.79 145.63 610.86 145.63 610.86 142.53 592.38 142.53 592.38 173.12 611.52 173.12 611.52 173.12"/><path class="cls-2" d="M640.05,173.12V142.53h-3.28V167.7c-.39-.79-1.53-2.8-2.18-3.85l-13.24-21.32H618v30.59h3.27V148.34c.4.79,1.53,2.8,2.19,3.85l13.37,20.93Z"/><polygon class="cls-2" points="667.62 145.63 667.62 142.53 646.21 142.53 646.21 145.63 655.21 145.63 655.21 173.12 658.62 173.12 658.62 145.63 667.62 145.63 667.62 145.63"/><path class="cls-3" d="M695.41,151.18c0-5.9-4.15-8.65-9.53-8.65h-12.1v30.59h3.41v-13h7.25l6.56,13h3.93l-6.73-13.29c4.37-.91,7.21-3.88,7.21-8.65Zm-3.41.13c0,3.85-2.14,5.73-6.68,5.73h-8.13V145.63h8.56c4.07,0,6.25,1.93,6.25,5.68Z"/><path class="cls-3" d="M725.64,157.78c0-9.22-5.06-15.73-12.67-15.73s-12.71,6.6-12.71,15.82,5,15.73,12.63,15.73,12.75-6.6,12.75-15.82Zm-3.4.09c0,7.69-3.94,12.63-9.22,12.63s-9.35-5-9.35-12.72,3.89-12.63,9.17-12.63,9.4,5,9.4,12.72Z"/><path class="cls-3" d="M365.73,97.82c0-5.9-4.15-8.65-9.52-8.65H344.1v30.58h3.41v-13h7.25l6.56,13h3.93l-6.73-13.28c4.37-.92,7.21-3.89,7.21-8.65Zm-3.41.13c0,3.85-2.14,5.73-6.68,5.73h-8.13V92.27h8.56c4.07,0,6.25,1.92,6.25,5.68Z"/><polygon class="cls-2" points="391.64 119.75 391.64 116.65 375.91 116.65 375.91 104.99 384.65 104.99 384.65 101.88 375.91 101.88 375.91 92.27 390.99 92.27 390.99 89.17 372.5 89.17 372.5 119.75 391.64 119.75 391.64 119.75"/><path class="cls-2" d="M419.3,107.56v-3h-8.83v3.15H416V108c0,6-2.8,9.13-7.91,9.13S399,111.89,399,104.42s3.76-12.63,9-12.63c3.33,0,5.16,1.18,7.13,3.84l2.71-2a11.23,11.23,0,0,0-9.75-4.89c-7.38,0-12.49,6.73-12.49,15.82s4.89,15.73,12.36,15.73c6.47,0,11.32-4.24,11.32-12.68Z"/><polygon class="cls-2" points="429.34 119.75 429.34 89.17 425.94 89.17 425.94 119.75 429.34 119.75 429.34 119.75"/><path class="cls-3" d="M461.68,104.42c0-9.22-5.07-15.73-12.67-15.73s-12.72,6.6-12.72,15.82,5,15.73,12.63,15.73,12.76-6.6,12.76-15.82Zm-3.41.09c0,7.69-3.93,12.62-9.22,12.62s-9.35-5-9.35-12.71,3.89-12.63,9.18-12.63,9.39,5,9.39,12.72Z"/><path class="cls-2" d="M490.42,119.75V89.17h-3.28v25.17c-.39-.79-1.53-2.8-2.18-3.85L471.72,89.17H468.4v30.58h3.28V95c.39.79,1.53,2.8,2.18,3.84l13.37,20.93Z"/><path class="cls-3" d="M521.75,119.75,511.14,89.17h-3.76l-10.62,30.58h3.5l2.66-7.77h12.63l2.62,7.77Zm-7.25-10.88H504l3.36-10c.75-2.14,1.62-4.89,1.93-6.12.3,1.27,1.18,4,1.88,6l3.36,10.05Z"/><polygon class="cls-2" points="546.62 119.75 546.62 116.65 531.5 116.65 531.5 89.17 528.09 89.17 528.09 119.75 546.62 119.75 546.62 119.75"/><path class="cls-3" d="M586.58,104.24c0-10.48-5.9-15.07-13.94-15.07h-8.08v30.58H572c8.17,0,14.55-4.41,14.55-15.51Zm-3.41.13c0,8.79-4.1,12.28-10.7,12.28H568V92.27h4.41c7,0,10.79,4.28,10.79,12.1Z"/><polygon class="cls-2" points="612.45 119.75 612.45 116.65 596.72 116.65 596.72 104.99 605.46 104.99 605.46 101.88 596.72 101.88 596.72 92.27 611.79 92.27 611.79 89.17 593.31 89.17 593.31 119.75 612.45 119.75 612.45 119.75"/><path class="cls-3" d="M367.39,66.39,356.77,35.81H353L342.4,66.39h3.49l2.67-7.78h12.63l2.62,7.78Zm-7.25-10.88H349.61l3.36-10c.74-2.14,1.62-4.89,1.92-6.12.31,1.27,1.18,4,1.88,6l3.37,10Z"/><path class="cls-3" d="M395.75,50.88c0-10.49-5.9-15.07-13.94-15.07h-8.08V66.39h7.47c8.17,0,14.55-4.41,14.55-15.51Zm-3.41.13c0,8.78-4.11,12.28-10.71,12.28h-4.5V38.91h4.42c7,0,10.79,4.28,10.79,12.1Z"/><path class="cls-2" d="M428.87,66.39V35.81h-3.72l-7.3,18.3c-.69,1.79-1.79,4.63-2.18,6-.35-1.27-1.44-4.11-2.19-6l-7.2-18.3h-3.81V66.39h3.28v-24a50.32,50.32,0,0,0,1.79,5.07l8,19.71,8.17-19.71a52.94,52.94,0,0,0,1.84-5.07v24Z"/><polygon class="cls-2" points="440.52 66.39 440.52 35.8 437.12 35.8 437.12 66.39 440.52 66.39 440.52 66.39"/><path class="cls-2" d="M470.8,66.39V35.81h-3.27V61c-.4-.78-1.53-2.79-2.19-3.84L452.1,35.81h-3.32V66.39h3.28V41.62c.39.78,1.53,2.79,2.19,3.84l13.37,20.93Z"/><polygon class="cls-2" points="482.48 66.39 482.48 35.8 479.07 35.8 479.07 66.39 482.48 66.39 482.48 66.39"/><path class="cls-2" d="M509.52,58.35c0-4.54-2.1-6.81-8.87-9.26-6.12-2.19-7.25-3.63-7.25-6.16s1.75-4.5,5.94-4.5a10.62,10.62,0,0,1,7.34,2.84l2.19-2.67a13.72,13.72,0,0,0-9.31-3.28c-5.73,0-9.57,2.93-9.57,7.83,0,4.41,2.23,6.55,8.83,8.91,5.59,2,7.29,3.63,7.29,6.47,0,3.23-2.53,5.24-6.59,5.24a11.6,11.6,0,0,1-8.13-3.67l-2.27,2.53a14.53,14.53,0,0,0,10.26,4.24c6.38,0,10.14-3.71,10.14-8.52Z"/><polygon class="cls-2" points="535.21 38.91 535.21 35.8 513.8 35.8 513.8 38.91 522.8 38.91 522.8 66.39 526.21 66.39 526.21 38.91 535.21 38.91 535.21 38.91"/><path class="cls-3" d="M563,44.46c0-5.9-4.16-8.65-9.53-8.65h-12.1V66.39h3.4v-13H552l6.55,13h3.93l-6.72-13.28c4.36-.92,7.21-3.89,7.21-8.65Zm-3.41.13c0,3.84-2.14,5.72-6.69,5.72h-8.13V38.91h8.57c4.06,0,6.25,1.92,6.25,5.68Z"/><path class="cls-3" d="M592.53,66.39,581.91,35.81h-3.75L567.54,66.39H571l2.67-7.78h12.63L589,66.39Zm-7.25-10.88H574.75l3.36-10c.74-2.14,1.62-4.89,1.93-6.12.3,1.27,1.17,4,1.87,6l3.37,10Z"/><path class="cls-2" d="M619.93,61.8l-2.36-2c-2,2.53-4.24,4-7.56,4-5.16,0-9-5.24-9-12.72s3.76-12.62,9-12.62c3.33,0,5.16,1.18,7.13,3.84l2.71-2.05a11.23,11.23,0,0,0-9.75-4.9c-7.38,0-12.49,6.73-12.49,15.82,0,8.35,4.23,14.77,10.83,15.64l-1,3.11,1.57.61a3,3,0,0,1,2.1-.79,1.3,1.3,0,0,1,1.4,1.44c0,1-.66,1.88-2.93,1.88a7.29,7.29,0,0,1-4-1.18l-.83,1.4a9.5,9.5,0,0,0,5.16,1.57c2.79,0,5.2-1,5.2-3.8a2.87,2.87,0,0,0-2.93-3,4.25,4.25,0,0,0-2.4.61l.56-1.75a12,12,0,0,0,9.62-5.07Z"/><path class="cls-3" d="M644.88,28h-2.71c-.26,2-.79,2.93-1.71,2.93S639.11,30.65,637,29a5,5,0,0,0-3.23-1.13c-2.36,0-4.46,1.79-4.46,5.68H632c.26-2.27.87-2.93,1.7-2.93s1.32.31,3.46,1.92a5,5,0,0,0,3.23,1.14c2.36,0,4.46-1.79,4.46-5.68Zm4.72,38.36L639,35.81h-3.76L624.6,66.39h3.5l2.66-7.78h12.63L646,66.39Zm-7.26-10.88H631.81l3.37-10c.74-2.14,1.61-4.89,1.92-6.12.3,1.27,1.18,4,1.88,6l3.36,10Z"/><path class="cls-3" d="M680,51.05c0-9.21-5.07-15.73-12.68-15.73s-12.71,6.6-12.71,15.82,5,15.73,12.63,15.73S680,60.27,680,51.05Zm-3.41.09c0,7.69-3.93,12.63-9.22,12.63s-9.35-5-9.35-12.72,3.89-12.62,9.17-12.62,9.4,5,9.4,12.71Z"/><path class="cls-4" d="M112.69,102.45h-9.92v-2.4h9.72a43.34,43.34,0,0,0,8.15-1.48,16.18,16.18,0,0,0,7.21-4.44,21.82,21.82,0,0,0,4.81-8.87,49.82,49.82,0,0,0,1.66-14.05q0-9.61-2.59-15.35A19.75,19.75,0,0,0,125.27,47a20.72,20.72,0,0,0-8.88-3.89c-3.2-.61-6.41-.36-9.61-.36-2.22,0-4.5-.13-6.84,0-1.54,0-2.92-.12-4.16,0H75.72v-3h27.92c1.47-.13,3-.19,4.43-.19a125.41,125.41,0,0,1,19.23,1.3,31.36,31.36,0,0,1,15.53,6.84A27.65,27.65,0,0,1,151.89,59a29.52,29.52,0,0,1,2.77,11.83,31.23,31.23,0,0,1-1.11,7.21,23,23,0,0,1-4.44,8.87,33.67,33.67,0,0,1-9.8,8.32q-6.47,3.69-17.19,5c2,.62,4.62,1.11,7.95,1.85a42.6,42.6,0,0,1,10.36,3.33,36.44,36.44,0,0,1,9.79,6.47,21,21,0,0,1,6.29,10.17,40.69,40.69,0,0,1,1.48,8.5c.37,3.08.61,6.29.74,9.61s.43,6.53.55,9.62a54.06,54.06,0,0,0,1.11,7.76,28.62,28.62,0,0,0,3.51,8.69c1.61,2.59,4.19,3.88,7.77,3.88a15,15,0,0,0,5-.92,12.35,12.35,0,0,0,4.62-3l1.67,2-2.22,1.67a17.23,17.23,0,0,1-3,1.48,19.37,19.37,0,0,1-4.62,1.1,31.61,31.61,0,0,1-6.47.56,36,36,0,0,1-12.39-1.85,18.77,18.77,0,0,1-7.77-5.36,24.9,24.9,0,0,1-4.43-8.87,80.67,80.67,0,0,1-1.85-12.39l-1.3-16.82q-.74-9.25-3.69-14.42a20.05,20.05,0,0,0-7-7.58,18.24,18.24,0,0,0-8.13-2.78,58.14,58.14,0,0,0-7.4-.55Z"/><path class="cls-4" d="M82,15.82A15.83,15.83,0,1,1,97.83,31.64,15.82,15.82,0,0,1,82,15.82Z"/><path class="cls-2" d="M728.64,173.3V169h4.27v4.27a7.59,7.59,0,0,1-.84,3.82,5.44,5.44,0,0,1-2.66,2.25l-1-1.62a3.57,3.57,0,0,0,1.76-1.54,6.69,6.69,0,0,0,.63-2.91Z"/><polygon class="cls-2" points="744.56 173.31 744.56 142.45 748.05 142.45 748.05 173.31 744.56 173.31 744.56 173.31"/><path class="cls-3" d="M755.43,173.3V142.45h11.26a27.51,27.51,0,0,1,4.66.29,9.3,9.3,0,0,1,3.78,1.42,7.57,7.57,0,0,1,2.45,3A9.89,9.89,0,0,1,776,157.86q-2.47,2.69-9,2.69H759.2V173.3ZM759.2,157h7.91c2.61,0,4.47-.48,5.56-1.46a5.18,5.18,0,0,0,1.65-4.1,5.52,5.52,0,0,0-1-3.29,4.57,4.57,0,0,0-2.55-1.81A17.38,17.38,0,0,0,767,146H759.2V157Z"/></g></g></svg>