<svg xmlns="http://www.w3.org/2000/svg" xmlns:xlink="http://www.w3.org/1999/xlink" viewBox="0 0 162.47 197.65"><defs><style>.cls-1{fill:url(#linear-gradient);}.cls-2{fill:url(#Nova_amostra_de_gradiente_1);}.cls-3{fill:url(#linear-gradient-2);}.cls-4{fill:#504f51;}.cls-5{fill:url(#Nova_amostra_de_gradiente_2);}.cls-6{fill:url(#Nova_amostra_de_gradiente_2-4);}</style><linearGradient id="linear-gradient" x1="95.39" y1="41.79" x2="138.19" y2="17.23" gradientUnits="userSpaceOnUse"><stop offset="0" stop-color="#ca190f"/><stop offset="1" stop-color="#821216"/></linearGradient><linearGradient id="Nova_amostra_de_gradiente_1" x1="35.59" y1="90.23" x2="61.81" y2="66.96" gradientUnits="userSpaceOnUse"><stop offset="0" stop-color="#006c33"/><stop offset="0.7" stop-color="#0c8f49"/></linearGradient><linearGradient id="linear-gradient-2" x1="40.52" y1="78.44" x2="125.7" y2="21.82" gradientUnits="userSpaceOnUse"><stop offset="0" stop-color="#037e38"/><stop offset="0.03" stop-color="#2f8935"/><stop offset="0.07" stop-color="#5a9533"/><stop offset="0.11" stop-color="#819f30"/><stop offset="0.16" stop-color="#a1a72e"/><stop offset="0.2" stop-color="#bbae2d"/><stop offset="0.25" stop-color="#d0b32c"/><stop offset="0.31" stop-color="#deb72b"/><stop offset="0.38" stop-color="#e6b92a"/><stop offset="0.5" stop-color="#e9ba2a"/><stop offset="0.57" stop-color="#e8b529"/><stop offset="0.65" stop-color="#e5a527"/><stop offset="0.74" stop-color="#e08c22"/><stop offset="0.83" stop-color="#d9681c"/><stop offset="0.93" stop-color="#d13b15"/><stop offset="1" stop-color="#ca190f"/></linearGradient><linearGradient id="Nova_amostra_de_gradiente_2" x1="-13.25" y1="185.56" x2="177.78" y2="185.56" gradientUnits="userSpaceOnUse"><stop offset="0" stop-color="#006c33"/><stop offset="0.07" stop-color="#057b3c"/><stop offset="0.16" stop-color="#098644"/><stop offset="0.29" stop-color="#0b8d48"/><stop offset="0.65" stop-color="#0c8f49"/></linearGradient><linearGradient id="Nova_amostra_de_gradiente_2-4" x1="-13.25" y1="185.46" x2="177.78" y2="185.46" xlink:href="#Nova_amostra_de_gradiente_2"/></defs><title>Ativo 1</title><g id="Camada_2" data-name="Camada 2"><g id="Camada_1-2" data-name="Camada 1"><path class="cls-1" d="M80.63,0A50.24,50.24,0,0,0,33.1,34c3.08-1.37,27.6-20.47,53-5.52,39.23,22.22,16.61,62.65,14.86,67.74A50.26,50.26,0,0,0,80.63,0Z"/><path class="cls-2" d="M80.66,100.49a50.25,50.25,0,0,0,47.54-34c-3.08,1.36-39.35,25.06-65.55,2.95C51,59.6,50.54,43.18,53.1,27c2.13-13.44,5.51-17.61,7.25-22.69a50.25,50.25,0,0,0,20.31,96.22Z"/><path class="cls-3" d="M56.32,34.07c-9.68,12-9,27.47-17,28.74-3.14.49-8.3-2.26-8.8-10.73A50.24,50.24,0,0,0,66.7,98.52c-4.77-6.59-6.55-9.85-6.55-18.64,0-22,17.63-38.25,39-40.19,16.6-1.51,24.57,2.14,31.73,12.26,0-.54,0-1.16,0-1.71A49.75,49.75,0,0,0,116,14.53C112.78,11.39,79.78,5,56.32,34.07Z"/><path class="cls-4" d="M110.88,157.72V152.2a7.84,7.84,0,0,1,2-5.06,25.37,25.37,0,0,1,5-4.49l5.83-4a23.55,23.55,0,0,0,5.05-4.63,8.44,8.44,0,0,0,2.08-5.32,7.49,7.49,0,0,0-2.1-5.24,8.72,8.72,0,0,0-11.11-.54,6.3,6.3,0,0,0-2,5,1.37,1.37,0,0,1-.56,1.09,2.32,2.32,0,0,1-1.51.46q-1.78,0-1.77-2.33a8.43,8.43,0,0,1,3.21-6.76,13.1,13.1,0,0,1,16.4.46,10.14,10.14,0,0,1,3.34,7.75,10.93,10.93,0,0,1-1.49,5.46,15.86,15.86,0,0,1-3.68,4.44q-2.2,1.82-4.81,3.69L120,145.44a16.06,16.06,0,0,0-3.69,3.21,5.61,5.61,0,0,0-1.49,3.56v3.53l18.93,0a1.26,1.26,0,0,1,1,.51,1.83,1.83,0,0,1,.41,1.19,2,2,0,0,1-.41,1.22,1.23,1.23,0,0,1-1,.54l-21,0a2.09,2.09,0,0,1-1.24-.43A1.26,1.26,0,0,1,110.88,157.72Z"/><path class="cls-4" d="M136.63,147.86a1.85,1.85,0,0,1,.24-1l14.88-28a1.94,1.94,0,0,1,1.83-1.13,2.14,2.14,0,0,1,1.27.45,1.32,1.32,0,0,1,.62,1.08,1.83,1.83,0,0,1-.18.74l-13.7,25.89h11.6V134.83q0-1.43,2-1.43a2.5,2.5,0,0,1,1.36.37,1.19,1.19,0,0,1,.59,1.06V145.9h3.25a1.28,1.28,0,0,1,1.09.52,2,2,0,0,1,0,2.42,1.3,1.3,0,0,1-1.07.52H157.1v8.39a1.26,1.26,0,0,1-.59,1.09,2.37,2.37,0,0,1-1.36.4,2.33,2.33,0,0,1-1.39-.4,1.27,1.27,0,0,1-.56-1.09v-8.39l-15,0Q136.63,149.34,136.63,147.86Z"/><path class="cls-4" d="M13.26,159.54a13.78,13.78,0,0,1-8-2.36v0l-1.37-1.06c-2.71-2.25-3.54-6-3.76-7.53L0,147.85l6.48-1.41.17.83a6.63,6.63,0,0,0,6.62,5.56,6.8,6.8,0,0,0,5.22-2.23,6,6,0,0,0,1-2.88,3.22,3.22,0,0,0-.53-2.1l-.06-.07A44.63,44.63,0,0,0,14,141.81a7.62,7.62,0,0,1-2.13-1.59c-4.32-2.86-7.21-4.94-8.28-6.46a10.7,10.7,0,0,1-1.85-5.51,10.92,10.92,0,0,1,3-7.22c2.69-2.76,5.5-3.32,9.18-3.32a12.71,12.71,0,0,1,7.43,2.57,13.6,13.6,0,0,1,4.44,7.88l.16.8-6.52,1.42-.17-.83c-.56-2.78-3-5.13-5.34-5.13-2.74,0-3.55.38-4.35,1.22a4.05,4.05,0,0,0-1.12,2.54,5.52,5.52,0,0,0,.68,1.67,53.76,53.76,0,0,0,5.12,3.85c.81.56,1.6,1.11,2.36,1.67,2.89,2,6.09,4.37,7.31,5.89A10.26,10.26,0,0,1,26.06,148a11.61,11.61,0,0,1-2.45,6.8A13.87,13.87,0,0,1,13.26,159.54Z"/><path class="cls-4" d="M60.41,159.32H54.58l-17.4-27.48v27.48H30.55V118.07h5.83l17.26,27.2v-27.2h6.77Z"/><path class="cls-4" d="M77.77,159.54a13.78,13.78,0,0,1-8-2.36v0l-1.37-1.06c-2.71-2.25-3.54-6-3.76-7.53l-.12-.77L71,146.44l.17.83a6.63,6.63,0,0,0,6.62,5.56A6.8,6.8,0,0,0,83,150.61a6,6,0,0,0,1-2.88,3.22,3.22,0,0,0-.53-2.1l-.06-.07a44.63,44.63,0,0,0-4.92-3.75,7.62,7.62,0,0,1-2.13-1.59c-4.32-2.86-7.21-4.94-8.28-6.46a10.7,10.7,0,0,1-1.85-5.51,10.92,10.92,0,0,1,3-7.22c2.69-2.76,5.5-3.32,9.18-3.32a12.71,12.71,0,0,1,7.43,2.57,13.6,13.6,0,0,1,4.44,7.88l.16.8-6.52,1.42-.17-.83c-.56-2.78-3-5.13-5.34-5.13-2.74,0-3.55.38-4.35,1.22a4.05,4.05,0,0,0-1.12,2.54,5.52,5.52,0,0,0,.68,1.67,53.76,53.76,0,0,0,5.12,3.85c.81.56,1.6,1.11,2.36,1.67,2.89,2,6.09,4.37,7.31,5.89A10.26,10.26,0,0,1,90.57,148a11.61,11.61,0,0,1-2.45,6.8A13.87,13.87,0,0,1,77.77,159.54Z"/><path class="cls-5" d="M.32,190.87v-.4q0-4.77,3.78-6.15-3-1.17-3-5.08a5.25,5.25,0,0,1,1.77-4.39,7.65,7.65,0,0,1,4.86-1.4,7.65,7.65,0,0,1,4.86,1.4,5.25,5.25,0,0,1,1.77,4.39q0,3.94-3.05,5.08,3.78,1.38,3.78,6.15v.4q0,3.49-2,5.13a8.17,8.17,0,0,1-5.35,1.65A8.24,8.24,0,0,1,2.34,196Q.32,194.36.32,190.87Zm3.48-.38a4.32,4.32,0,0,0,1,3.16,3.86,3.86,0,0,0,2.87,1q3.87,0,3.87-4.2v-.59q0-4.07-3.87-4.07T3.8,189.91Zm.62-10.86q0,3.25,3.28,3.25T11,179.63q0-3.22-3.28-3.22T4.43,179.63Z"/><path class="cls-5" d="M17.76,190.33v-9.55q0-3.77,2-5.55a7.86,7.86,0,0,1,5.4-1.77,7.91,7.91,0,0,1,5.42,1.77q2,1.77,2,5.55v9.55q0,3.78-2,5.55a7.91,7.91,0,0,1-5.42,1.77,7.86,7.86,0,0,1-5.4-1.77Q17.75,194.11,17.76,190.33Zm3.48,0q0,4.23,3.94,4.23a3.89,3.89,0,0,0,2.91-1.05,4.39,4.39,0,0,0,1-3.18v-9.55a4.39,4.39,0,0,0-1-3.18,3.89,3.89,0,0,0-2.91-1.05q-3.94,0-3.94,4.23Z"/><path class="cls-5" d="M35.12,190.87v-.4q0-4.77,3.78-6.15-3-1.17-3-5.08a5.25,5.25,0,0,1,1.77-4.39,7.65,7.65,0,0,1,4.86-1.4,7.65,7.65,0,0,1,4.86,1.4,5.25,5.25,0,0,1,1.77,4.39q0,3.94-3.05,5.08,3.78,1.38,3.78,6.15v.4q0,3.49-2,5.13a8.17,8.17,0,0,1-5.35,1.65A8.24,8.24,0,0,1,37.14,196Q35.12,194.36,35.12,190.87Zm3.48-.38a4.32,4.32,0,0,0,1,3.16,3.86,3.86,0,0,0,2.87,1q3.87,0,3.87-4.2v-.59q0-4.07-3.87-4.07t-3.91,4.07Zm.62-10.86q0,3.25,3.28,3.25t3.28-3.25q0-3.22-3.28-3.22T39.23,179.63Z"/><path class="cls-6" d="M58.3,196.31v-3.18a4.73,4.73,0,0,1,1.07-2.89A12.72,12.72,0,0,1,62,187.68l3.15-2.29a13.73,13.73,0,0,0,2.68-2.52,4.41,4.41,0,0,0,1.1-2.75,3.54,3.54,0,0,0-.9-2.41,3.33,3.33,0,0,0-2.64-1,3.48,3.48,0,0,0-2.4.82,3.05,3.05,0,0,0-.92,2.41,1.13,1.13,0,0,1-.51.91,2.13,2.13,0,0,1-1.33.39q-1.58,0-1.58-1.94a5.16,5.16,0,0,1,2-4.19,7.71,7.71,0,0,1,9.72.2A6,6,0,0,1,72.42,180a6.72,6.72,0,0,1-1.1,3.69,11.32,11.32,0,0,1-2.66,2.92q-1.56,1.2-3.12,2.26A19.29,19.29,0,0,0,62.88,191a3.05,3.05,0,0,0-1.1,2.1v1.25h9.65a1,1,0,0,1,.8.44,1.69,1.69,0,0,1,.34,1.07,1.83,1.83,0,0,1-.34,1.1,1,1,0,0,1-.8.48H59.83a1.87,1.87,0,0,1-1-.33A1,1,0,0,1,58.3,196.31Z"/><path class="cls-6" d="M72.51,190.77a1.49,1.49,0,0,1,.2-.72l7.94-15.64a1.6,1.6,0,0,1,1.51-1,2.08,2.08,0,0,1,1.15.39,1.13,1.13,0,0,1,.59,1,1.27,1.27,0,0,1-.16.53L77,188.82h4.83v-4.56q0-1.16,1.74-1.16a2.4,2.4,0,0,1,1.23.3.94.94,0,0,1,.51.86v4.56h1.61a1,1,0,0,1,.87.49,2.06,2.06,0,0,1,.31,1.14,1.83,1.83,0,0,1-.36,1.09,1,1,0,0,1-.82.5H85.29v4.26a1,1,0,0,1-.52.84,2.54,2.54,0,0,1-2.45,0,1,1,0,0,1-.51-.84V192H73.73a1.19,1.19,0,0,1-.87-.34A1.25,1.25,0,0,1,72.51,190.77Z"/><path class="cls-6" d="M95.5,196.31v-3.18a4.73,4.73,0,0,1,1.07-2.89,12.72,12.72,0,0,1,2.64-2.56l3.15-2.29a13.73,13.73,0,0,0,2.68-2.52,4.41,4.41,0,0,0,1.1-2.75,3.54,3.54,0,0,0-.9-2.41,3.33,3.33,0,0,0-2.64-1,3.48,3.48,0,0,0-2.4.82,3.05,3.05,0,0,0-.92,2.41,1.13,1.13,0,0,1-.51.91,2.13,2.13,0,0,1-1.33.39q-1.58,0-1.58-1.94a5.16,5.16,0,0,1,2-4.19,7.71,7.71,0,0,1,9.72.2,6,6,0,0,1,2.05,4.73,6.72,6.72,0,0,1-1.1,3.69,11.32,11.32,0,0,1-2.66,2.92q-1.56,1.2-3.12,2.26a19.29,19.29,0,0,0-2.66,2.15,3.05,3.05,0,0,0-1.1,2.1v1.25h9.65a1,1,0,0,1,.8.44,1.69,1.69,0,0,1,.34,1.07,1.83,1.83,0,0,1-.34,1.1,1,1,0,0,1-.8.48H97a1.87,1.87,0,0,1-1-.33A1,1,0,0,1,95.5,196.31Z"/><path class="cls-6" d="M109.71,190.77a1.49,1.49,0,0,1,.2-.72l7.94-15.64a1.6,1.6,0,0,1,1.51-1,2.08,2.08,0,0,1,1.15.39,1.13,1.13,0,0,1,.59,1,1.27,1.27,0,0,1-.16.53l-6.76,13.49H119v-4.56q0-1.16,1.74-1.16a2.4,2.4,0,0,1,1.23.3.94.94,0,0,1,.51.86v4.56h1.61a1,1,0,0,1,.87.49,2.06,2.06,0,0,1,.31,1.14,1.83,1.83,0,0,1-.36,1.09,1,1,0,0,1-.82.5h-1.61v4.26a1,1,0,0,1-.52.84,2.54,2.54,0,0,1-2.45,0,1,1,0,0,1-.51-.84V192h-8.08a1.19,1.19,0,0,1-.87-.34A1.25,1.25,0,0,1,109.71,190.77Z"/><path class="cls-6" d="M132.69,196.31v-3.18a4.73,4.73,0,0,1,1.07-2.89,12.72,12.72,0,0,1,2.64-2.56l3.15-2.29a13.73,13.73,0,0,0,2.68-2.52,4.41,4.41,0,0,0,1.1-2.75,3.54,3.54,0,0,0-.9-2.41,3.33,3.33,0,0,0-2.64-1,3.48,3.48,0,0,0-2.4.82,3.05,3.05,0,0,0-.92,2.41,1.13,1.13,0,0,1-.51.91,2.13,2.13,0,0,1-1.33.39q-1.58,0-1.58-1.94a5.16,5.16,0,0,1,2-4.19,7.71,7.71,0,0,1,9.72.2,6,6,0,0,1,2.05,4.73,6.72,6.72,0,0,1-1.1,3.69,11.32,11.32,0,0,1-2.66,2.92q-1.56,1.2-3.12,2.26a19.29,19.29,0,0,0-2.66,2.15,3.05,3.05,0,0,0-1.1,2.1v1.25h9.65a1,1,0,0,1,.8.44,1.69,1.69,0,0,1,.34,1.07,1.83,1.83,0,0,1-.34,1.1,1,1,0,0,1-.8.48H134.22a1.87,1.87,0,0,1-1-.33A1,1,0,0,1,132.69,196.31Z"/><path class="cls-6" d="M146.91,190.77a1.49,1.49,0,0,1,.2-.72L155,174.41a1.6,1.6,0,0,1,1.51-1,2.08,2.08,0,0,1,1.15.39,1.13,1.13,0,0,1,.59,1,1.27,1.27,0,0,1-.16.53l-6.76,13.49h4.83v-4.56q0-1.16,1.74-1.16a2.4,2.4,0,0,1,1.23.3.94.94,0,0,1,.51.86v4.56h1.61a1,1,0,0,1,.87.49,2.06,2.06,0,0,1,.31,1.14,1.83,1.83,0,0,1-.36,1.09,1,1,0,0,1-.82.5h-1.61v4.26a1,1,0,0,1-.52.84,2.54,2.54,0,0,1-2.45,0,1,1,0,0,1-.51-.84V192h-8.08a1.19,1.19,0,0,1-.87-.34A1.25,1.25,0,0,1,146.91,190.77Z"/></g></g></svg>