<?xml version="1.0" encoding="utf-8"?>
<!-- Generator: Adobe Illustrator 22.1.0, SVG Export Plug-In . SVG Version: 6.00 Build 0)  -->
<svg version="1.1" id="Layer_1" xmlns="http://www.w3.org/2000/svg" xmlns:xlink="http://www.w3.org/1999/xlink" x="0px" y="0px"
	 viewBox="0 0 366.2 62" style="enable-background:new 0 0 366.2 62;" xml:space="preserve">
<style type="text/css">
	.st0{fill:#504F51;}
	.st1{fill:url(#SVGID_1_);}
	.st2{fill:url(#SVGID_2_);}
	.st3{fill:url(#SVGID_3_);}
</style>
<title>Ativo 1</title>
<g>
	<g>
		<g>
			<g>
				<polygon class="st0" points="79.7,62 78.8,62 78.8,0 79.7,0 				"/>
			</g>
			<g>
				<g>
					<g>
						<linearGradient id="SVGID_1_" gradientUnits="userSpaceOnUse" x1="41.5822" y1="25.7836" x2="67.9818" y2="10.6364">
							<stop  offset="0" style="stop-color:#CC0000"/>
							<stop  offset="1" style="stop-color:#80171B"/>
						</linearGradient>
						<path class="st1" d="M32.5,0C18.9,0,7.3,8.8,3.2,21c1.9-0.8,17-12.6,32.7-3.4C60,31.3,46.1,56.2,45,59.4
							C55.9,54.6,63.5,43.7,63.5,31C63.5,13.9,49.6,0,32.5,0z"/>
						<linearGradient id="SVGID_2_" gradientUnits="userSpaceOnUse" x1="22.9308" y1="58.3028" x2="31.5249" y2="33.7482">
							<stop  offset="0" style="stop-color:#096F35"/>
							<stop  offset="0.7" style="stop-color:#059242"/>
						</linearGradient>
						<path class="st2" d="M32.5,62c13.6,0,25.2-8.8,29.3-21c-1.9,0.8-24.3,15.5-40.4,1.8c-7.2-6.1-7.5-16.2-5.9-26.2
							c1.3-8.3,3.4-10.9,4.5-14C9.1,7.5,1.5,18.3,1.5,31C1.5,48.1,15.4,62,32.5,62z"/>
						<linearGradient id="SVGID_3_" gradientUnits="userSpaceOnUse" x1="7.739" y1="48.3948" x2="60.2786" y2="13.4696">
							<stop  offset="0" style="stop-color:#059242"/>
							<stop  offset="3.172159e-02" style="stop-color:#2F9936"/>
							<stop  offset="7.004586e-02" style="stop-color:#5AA12A"/>
							<stop  offset="0.1114" style="stop-color:#81A720"/>
							<stop  offset="0.1553" style="stop-color:#A1AD17"/>
							<stop  offset="0.2023" style="stop-color:#BBB110"/>
							<stop  offset="0.2538" style="stop-color:#D0B50A"/>
							<stop  offset="0.312" style="stop-color:#DEB706"/>
							<stop  offset="0.3826" style="stop-color:#E6B904"/>
							<stop  offset="0.5" style="stop-color:#E9B903"/>
							<stop  offset="0.56" style="stop-color:#E8B403"/>
							<stop  offset="0.635" style="stop-color:#E6A403"/>
							<stop  offset="0.718" style="stop-color:#E28B02"/>
							<stop  offset="0.8069" style="stop-color:#DC6702"/>
							<stop  offset="0.9004" style="stop-color:#D53901"/>
							<stop  offset="0.9965" style="stop-color:#CC0200"/>
							<stop  offset="1" style="stop-color:#CC0000"/>
						</linearGradient>
						<path class="st3" d="M17.5,21C11.5,28.4,11.9,38,7,38.8c-1.9,0.3-5.1-1.4-5.4-6.6c0.5,13.6,9.8,25,22.3,28.6
							c-2.9-4.1-4-6.1-4-11.5c0-13.6,10.9-23.6,24-24.8c10.2-0.9,15.2,1.3,19.6,7.6c0-0.3,0-0.7,0-1.1c0-8.6-3.5-16.4-9.2-22
							C52.3,7,32,3.1,17.5,21z"/>
					</g>
				</g>
			</g>
		</g>
		<g>
			<g>
				<g>
					<g>
						<g>
							<path class="st0" d="M109.8,52.4c-3.3,0-6.3-0.9-8.7-2.6v0.1l-1.5-1.2c-3-2.4-3.9-6.6-4.1-8.2l-0.1-0.8l7.1-1.5l0.2,0.9
								c0.2,1,1.5,6.1,7.2,6.1c3.1,0,4.9-1.5,5.7-2.4c0.6-0.9,1.1-2.3,1.1-3.1c0-1.1-0.2-1.9-0.6-2.3l-0.1-0.1
								c-0.6-0.8-4-3.1-5.4-4.1c-0.7-0.3-1.8-1.1-2.3-1.7c-4.7-3.1-7.9-5.4-9-7c-1.3-1.9-2-4.2-2-6c0-2.7,1.2-5.6,3.3-7.9
								c2.9-3,6-3.6,10-3.6c2.8,0,5.6,1,8.1,2.8c2.3,1.8,4.2,5.1,4.8,8.6l0.2,0.9l-7.1,1.5l-0.2-0.9c-0.6-3-3.3-5.6-5.8-5.6
								c-3,0-3.9,0.4-4.7,1.3c-0.4,0.4-1.2,1.5-1.2,2.8c0,0.4,0.5,1.4,0.7,1.8c1.8,1.6,3.7,2.9,5.6,4.2c0.9,0.6,1.7,1.2,2.6,1.8
								c3.2,2.2,6.6,4.8,8,6.4c1.6,1.9,2.4,4.6,2.4,7.4c0,2.5-1,5.4-2.7,7.4C118.9,49.6,115.2,52.4,109.8,52.4z"/>
						</g>
						<g>
							<path class="st0" d="M161.2,52.2h-6.4l-19-30v30h-7.2v-45h6.4l18.8,29.7V7.2h7.4V52.2z"/>
						</g>
						<g>
							<path class="st0" d="M180.1,52.4c-3.3,0-6.3-0.9-8.7-2.6v0.1l-1.5-1.2c-3-2.4-3.9-6.6-4.1-8.2l-0.1-0.8l7.1-1.5l0.2,0.9
								c0.2,1,1.5,6.1,7.2,6.1c3.1,0,4.9-1.5,5.7-2.4c0.6-0.9,1.1-2.3,1.1-3.1c0-1.1-0.2-1.9-0.6-2.3l-0.1-0.1
								c-0.6-0.8-4-3.1-5.4-4.1c-0.7-0.3-1.8-1.1-2.3-1.7c-4.7-3.1-7.9-5.4-9-7c-1.3-1.9-2-4.2-2-6c0-2.7,1.2-5.6,3.3-7.9
								c2.9-3,6-3.6,10-3.6c2.8,0,5.6,1,8.1,2.8c2.3,1.8,4.2,5.1,4.8,8.6l0.2,0.9l-7.1,1.5l-0.2-0.9c-0.6-3-3.3-5.6-5.8-5.6
								c-3,0-3.9,0.4-4.7,1.3c-0.4,0.4-1.2,1.5-1.2,2.8c0,0.4,0.5,1.4,0.7,1.8c1.8,1.6,3.7,2.9,5.6,4.2c0.9,0.6,1.7,1.2,2.6,1.8
								c3.2,2.2,6.6,4.8,8,6.4c1.6,1.9,2.4,4.6,2.4,7.4c0,2.5-1,5.4-2.7,7.4C189.2,49.6,185.5,52.4,180.1,52.4z"/>
						</g>
					</g>
				</g>
				<g>
					<g>
						<g>
							<path class="st0" d="M210.4,13.2c0-2-0.9-3.2-2.9-3.2s-3.1,1.3-3.1,2.9c0,4.9,7.9,2.2,7.9,7.9c0,3.1-2,4.8-4.9,4.8
								c-3.1,0-4.7-1.6-4.7-4.8v-0.5h1.5v0.6c0,2.1,1.1,3.5,3.2,3.5c2.1,0,3.5-1,3.5-3.3c0-4.8-7.9-2.1-7.9-8c0-2.6,1.7-4.3,4.5-4.3
								c3,0,4.4,1.6,4.4,4.5H210.4z"/>
							<path class="st0" d="M214.2,9.1h8.1v1.2h-6.6v5.9h6.2v1.2h-6.2v6.7h6.8v1.2h-8.3V9.1z"/>
							<path class="st0" d="M224.3,9.1h4.9c2.7,0,4.2,1.6,4.2,4.1c0,2-0.8,3.7-2.9,4.1v0c2,0.2,2.7,1.3,2.8,3.9l0,1.8
								c0,0.9,0.1,1.8,0.7,2.4h-1.7c-0.3-0.6-0.4-1.4-0.4-2.3l0-1.4c-0.1-2.9-0.6-3.8-3.2-3.8h-2.8v7.4h-1.5V9.1z M225.8,16.7h2.5
								c2.3,0,3.7-1.1,3.7-3.2c0-2-0.8-3.2-3.5-3.2h-2.7V16.7z"/>
							<path class="st0" d="M234.5,9.1h1.6l3.6,14.7h0l3.6-14.7h1.6l-4.3,16.3h-1.8L234.5,9.1z"/>
							<path class="st0" d="M246.3,9.1h1.5v16.3h-1.5V9.1z"/>
							<path class="st0" d="M255.3,25.6c-3.2-0.2-5-2.7-5-8.4c0-5.8,1.9-8.4,5.2-8.4c3.3,0,4.7,2.4,4.7,5h-1.5
								c0-2.2-1.1-3.8-3.2-3.8c-2.3,0-3.7,1.9-3.7,7.2c0,5.3,1.4,7.2,3.7,7.2c2.1,0,3.2-1.8,3.4-4.6h1.5c-0.2,3.4-1.7,5.5-4.2,5.8
								l-0.8,1l0,0c0.2-0.1,0.5-0.1,0.8-0.1c1,0,1.8,0.7,1.8,1.5c0,1.3-1.4,1.9-2.4,1.9c-0.7,0-1.6-0.2-2-0.5l0.3-0.7
								c0.4,0.2,0.9,0.3,1.4,0.3c1.1,0,1.6-0.5,1.6-1c0-0.6-0.6-0.8-1.2-0.8c-0.4,0-0.8,0.1-1,0.2l-0.3-0.4L255.3,25.6z"/>
							<path class="st0" d="M267.4,8.8c3.3,0,5.2,2.6,5.2,8.4s-1.9,8.4-5.2,8.4c-3.3,0-5.2-2.6-5.2-8.4S264,8.8,267.4,8.8z
								 M267.4,24.4c2.3,0,3.7-1.9,3.7-7.2c0-5.3-1.4-7.2-3.7-7.2c-2.3,0-3.7,1.9-3.7,7.2C263.6,22.5,265,24.4,267.4,24.4z"/>
							<path class="st0" d="M280.5,9.1h2l6.2,14.2h0V9.1h1.5v16.3h-2L282,11.2h0v14.2h-1.5V9.1z"/>
							<path class="st0" d="M296.2,9.1h1.8l4.8,16.3h-1.6l-1.3-4.7h-5.7l-1.3,4.7h-1.6L296.2,9.1z M299.7,19.4l-2.5-9.2h0l-2.5,9.2
								H299.7z"/>
							<path class="st0" d="M314,19.8c-0.2,3.7-1.9,5.8-4.8,5.8c-3.3,0-5.2-2.6-5.2-8.4s1.9-8.4,5.2-8.4c3.3,0,4.7,2.4,4.7,5h-1.5
								c0-2.2-1.1-3.8-3.2-3.8c-2.3,0-3.7,1.9-3.7,7.2c0,5.3,1.4,7.2,3.7,7.2c2.1,0,3.2-1.8,3.4-4.6H314z"/>
							<path class="st0" d="M316.1,9.1h1.5v16.3h-1.5V9.1z"/>
							<path class="st0" d="M325.2,8.8c3.3,0,5.2,2.6,5.2,8.4s-1.9,8.4-5.2,8.4c-3.3,0-5.2-2.6-5.2-8.4S321.9,8.8,325.2,8.8z
								 M325.2,24.4c2.3,0,3.7-1.9,3.7-7.2c0-5.3-1.4-7.2-3.7-7.2c-2.3,0-3.7,1.9-3.7,7.2C321.5,22.5,322.9,24.4,325.2,24.4z"/>
							<path class="st0" d="M332.9,9.1h2l6.2,14.2h0V9.1h1.5v16.3h-2l-6.2-14.2h0v14.2h-1.5V9.1z"/>
							<path class="st0" d="M348.6,9.1h1.8l4.8,16.3h-1.6l-1.3-4.7h-5.7l-1.3,4.7h-1.6L348.6,9.1z M352.1,19.4l-2.5-9.2h0l-2.5,9.2
								H352.1z"/>
							<path class="st0" d="M356.5,9.1h1.5v15.1h6.8v1.2h-8.2V9.1z"/>
							<path class="st0" d="M203.2,35.9h3.9c4.7,0,5.9,2.8,5.9,8.1s-1.2,8.1-5.9,8.1h-3.9V35.9z M204.7,51h2.4
								c3.2,0,4.5-1.6,4.5-6.9c0-5.3-1.3-6.9-4.5-6.9h-2.4V51z"/>
							<path class="st0" d="M215.5,35.9h8.1v1.2h-6.6v5.9h6.2v1.2h-6.2V51h6.8v1.2h-8.3V35.9z"/>
							<path class="st0" d="M238.2,40.1c0-2-0.9-3.2-2.9-3.2c-2,0-3.1,1.3-3.1,2.9c0,4.9,7.9,2.2,7.9,7.9c0,3.1-2,4.8-4.9,4.8
								c-3.1,0-4.7-1.6-4.7-4.8v-0.5h1.5v0.6c0,2.1,1.1,3.5,3.2,3.5c2.1,0,3.5-1,3.5-3.3c0-4.8-7.9-2.1-7.9-8c0-2.6,1.7-4.3,4.5-4.3
								c3,0,4.4,1.6,4.4,4.5H238.2z"/>
							<path class="st0" d="M245.5,35.9h1.8l4.8,16.3h-1.6l-1.3-4.7h-5.7l-1.3,4.7h-1.6L245.5,35.9z M249,46.2l-2.5-9.2h0l-2.5,9.2
								H249z"/>
							<path class="st0" d="M253.3,35.9h1.5v11.7c0,2.4,1.1,3.6,3.2,3.6c2.1,0,3.2-1.2,3.2-3.6V35.9h1.5v11.7c0,3.4-1.7,4.8-4.7,4.8
								c-3,0-4.7-1.4-4.7-4.8V35.9z M260.4,31.9l-2.2,3.2H257l1.7-3.2H260.4z"/>
							<path class="st0" d="M265,35.9h3.9c4.7,0,5.9,2.8,5.9,8.1s-1.2,8.1-5.9,8.1H265V35.9z M266.4,51h2.4c3.2,0,4.5-1.6,4.5-6.9
								c0-5.3-1.3-6.9-4.5-6.9h-2.4V51z"/>
							<path class="st0" d="M277.2,35.9h8.1v1.2h-6.6v5.9h6.2v1.2h-6.2V51h6.8v1.2h-8.3V35.9z"/>
						</g>
					</g>
				</g>
			</g>
		</g>
	</g>
</g>
</svg>
