<?xml version="1.0" encoding="utf-8"?>
<!-- Generator: Adobe Illustrator 22.1.0, SVG Export Plug-In . SVG Version: 6.00 Build 0)  -->
<svg version="1.1" id="Layer_1" xmlns="http://www.w3.org/2000/svg" xmlns:xlink="http://www.w3.org/1999/xlink" x="0px" y="0px"
	 viewBox="0 0 208 67" style="enable-background:new 0 0 208 67;" xml:space="preserve">
<style type="text/css">
	.st0{fill:#504F51;}
	.st1{fill:url(#SVGID_1_);}
	.st2{fill:url(#SVGID_2_);}
	.st3{fill:url(#SVGID_3_);}
</style>
<title>Ativo 2</title>
<g>
	<g>
		<polygon class="st0" points="81.5,67 80.6,67 80.6,0.4 81.5,0.4 		"/>
	</g>
	<g>
		<g>
			<g>
				<g>
					<g>
						<g>
							<path class="st0" d="M105.4,31.6c-2.3,0-4.3-0.6-6.1-1.8v0l-1-0.8c-2.1-1.7-2.7-4.6-2.8-5.7l-0.1-0.6l4.9-1.1l0.1,0.6
								c0.1,0.7,1,4.2,5,4.2c2.1,0,3.4-1,3.9-1.7c0.4-0.7,0.8-1.6,0.8-2.2c0-0.7-0.2-1.3-0.4-1.6l0-0.1c-0.4-0.5-2.8-2.2-3.7-2.8
								c-0.5-0.2-1.2-0.8-1.6-1.2c-3.3-2.2-5.5-3.7-6.3-4.9c-0.9-1.4-1.4-2.9-1.4-4.2c0-1.9,0.8-3.9,2.3-5.5c2-2.1,4.2-2.5,7-2.5
								c1.9,0,3.9,0.7,5.6,1.9c1.6,1.3,2.9,3.5,3.4,6l0.1,0.6l-4.9,1.1l-0.1-0.6c-0.4-2.1-2.3-3.9-4-3.9c-2.1,0-2.7,0.3-3.3,0.9
								c-0.2,0.2-0.8,1-0.8,1.9c0,0.3,0.3,0.9,0.5,1.3c1.3,1.1,2.6,2,3.9,2.9c0.6,0.4,1.2,0.8,1.8,1.3c2.2,1.5,4.6,3.3,5.5,4.5
								c1.1,1.3,1.7,3.2,1.6,5.1c0,1.7-0.7,3.7-1.9,5.1C111.7,29.7,109.2,31.6,105.4,31.6z"/>
						</g>
						<g>
							<path class="st0" d="M141.1,31.5h-4.4l-13.2-20.8v20.8h-5V0.3h4.4L136,20.8V0.3h5.1V31.5z"/>
						</g>
						<g>
							<path class="st0" d="M154.2,31.6c-2.3,0-4.3-0.6-6.1-1.8v0l-1-0.8c-2.1-1.7-2.7-4.6-2.8-5.7l-0.1-0.6l4.9-1.1l0.1,0.6
								c0.1,0.7,1,4.2,5,4.2c2.1,0,3.4-1,3.9-1.7c0.4-0.7,0.8-1.6,0.8-2.2c0-0.7-0.2-1.3-0.4-1.6l0-0.1c-0.4-0.5-2.8-2.2-3.7-2.8
								c-0.5-0.2-1.2-0.8-1.6-1.2c-3.3-2.2-5.5-3.7-6.3-4.9c-0.9-1.4-1.4-2.9-1.4-4.2c0-1.9,0.8-3.9,2.3-5.5c2-2.1,4.2-2.5,7-2.5
								c1.9,0,3.9,0.7,5.6,1.9c1.6,1.3,2.9,3.5,3.4,6l0.1,0.6l-4.9,1.1l-0.1-0.6c-0.4-2.1-2.3-3.9-4-3.9c-2.1,0-2.7,0.3-3.3,0.9
								c-0.2,0.2-0.8,1-0.8,1.9c0,0.3,0.3,0.9,0.5,1.3c1.3,1.1,2.6,2,3.9,2.9c0.6,0.4,1.2,0.8,1.8,1.3c2.2,1.5,4.6,3.3,5.5,4.5
								c1.1,1.3,1.7,3.2,1.6,5.1c0,1.7-0.7,3.7-1.9,5.1C160.6,29.7,158,31.6,154.2,31.6z"/>
						</g>
					</g>
				</g>
				<g>
					<g>
						<g>
							<path class="st0" d="M100.8,39.6c0-1.4-0.6-2.2-2-2.2c-1.4,0-2.1,0.9-2.1,2c0,3.4,5.5,1.5,5.5,5.5c0,2.2-1.4,3.3-3.4,3.3
								c-2.1,0-3.3-1.1-3.3-3.4v-0.3h1v0.4c0,1.4,0.8,2.4,2.3,2.4c1.4,0,2.4-0.7,2.4-2.3c0-3.4-5.5-1.4-5.5-5.5c0-1.8,1.2-3,3.1-3
								c2.1,0,3.1,1.1,3.1,3.1H100.8z"/>
							<path class="st0" d="M103.4,36.7h5.6v0.9h-4.6v4.1h4.3v0.9h-4.3v4.6h4.7V48h-5.8V36.7z"/>
							<path class="st0" d="M110.5,36.7h3.4c1.9,0,2.9,1.1,2.9,2.8c0,1.4-0.5,2.6-2,2.9v0c1.4,0.1,1.9,0.9,1.9,2.7l0,1.2
								c0,0.6,0.1,1.2,0.5,1.7H116c-0.2-0.4-0.3-1-0.3-1.6l0-1c-0.1-2-0.4-2.6-2.3-2.6h-1.9V48h-1V36.7z M111.5,42h1.7
								c1.6,0,2.5-0.7,2.5-2.2c0-1.4-0.6-2.2-2.4-2.2h-1.9V42z"/>
							<path class="st0" d="M117.5,36.7h1.1l2.5,10.2h0l2.5-10.2h1.1l-3,11.3h-1.3L117.5,36.7z"/>
							<path class="st0" d="M125.8,36.7h1V48h-1V36.7z"/>
							<path class="st0" d="M132,48.2c-2.2-0.1-3.4-1.9-3.4-5.8c0-4.1,1.3-5.8,3.6-5.8c2.3,0,3.2,1.6,3.2,3.5h-1
								c0-1.5-0.8-2.6-2.2-2.6c-1.6,0-2.6,1.3-2.6,5c0,3.7,1,5,2.6,5c1.4,0,2.2-1.2,2.3-3.2h1c-0.1,2.4-1.2,3.8-2.9,4l-0.6,0.7l0,0
								c0.1-0.1,0.3-0.1,0.5-0.1c0.7,0,1.2,0.5,1.2,1.1c0,0.9-1,1.3-1.7,1.3c-0.5,0-1.1-0.2-1.4-0.3l0.2-0.5c0.3,0.1,0.6,0.2,1,0.2
								c0.8,0,1.1-0.3,1.1-0.7c0-0.4-0.4-0.6-0.8-0.6c-0.3,0-0.5,0-0.7,0.2l-0.2-0.3L132,48.2z"/>
							<path class="st0" d="M140.4,36.5c2.3,0,3.6,1.8,3.6,5.8c0,4.1-1.3,5.8-3.6,5.8c-2.3,0-3.6-1.8-3.6-5.8
								C136.8,38.3,138.1,36.5,140.4,36.5z M140.4,47.3c1.6,0,2.6-1.3,2.6-5c0-3.7-1-5-2.6-5c-1.6,0-2.6,1.3-2.6,5
								C137.8,46,138.7,47.3,140.4,47.3z"/>
							<path class="st0" d="M149.5,36.7h1.4l4.3,9.9h0v-9.9h1V48h-1.4l-4.3-9.9h0V48h-1V36.7z"/>
							<path class="st0" d="M160.4,36.7h1.3L165,48h-1.1l-0.9-3.3h-4l-0.9,3.3h-1.1L160.4,36.7z M162.8,43.8l-1.7-6.4h0l-1.7,6.4
								H162.8z"/>
							<path class="st0" d="M172.8,44.2c-0.1,2.6-1.3,4-3.4,4c-2.3,0-3.6-1.8-3.6-5.8c0-4.1,1.3-5.8,3.6-5.8c2.3,0,3.2,1.6,3.2,3.5
								h-1c0-1.5-0.8-2.6-2.2-2.6c-1.6,0-2.6,1.3-2.6,5c0,3.7,1,5,2.6,5c1.4,0,2.2-1.2,2.3-3.2H172.8z"/>
							<path class="st0" d="M174.2,36.7h1V48h-1V36.7z"/>
							<path class="st0" d="M180.5,36.5c2.3,0,3.6,1.8,3.6,5.8c0,4.1-1.3,5.8-3.6,5.8c-2.3,0-3.6-1.8-3.6-5.8
								C176.9,38.3,178.2,36.5,180.5,36.5z M180.5,47.3c1.6,0,2.6-1.3,2.6-5c0-3.7-1-5-2.6-5c-1.6,0-2.6,1.3-2.6,5
								C177.9,46,178.9,47.3,180.5,47.3z"/>
							<path class="st0" d="M185.8,36.7h1.4l4.3,9.9h0v-9.9h1V48h-1.4l-4.3-9.9h0V48h-1V36.7z"/>
							<path class="st0" d="M196.8,36.7h1.3l3.3,11.3h-1.1l-0.9-3.3h-4l-0.9,3.3h-1.1L196.8,36.7z M199.2,43.8l-1.7-6.4h0l-1.7,6.4
								H199.2z"/>
							<path class="st0" d="M202.3,36.7h1v10.5h4.7V48h-5.7V36.7z"/>
							<path class="st0" d="M95.8,55.3h2.7c3.3,0,4.1,2,4.1,5.7s-0.8,5.7-4.1,5.7h-2.7V55.3z M96.8,65.8h1.6c2.2,0,3.2-1.1,3.2-4.8
								c0-3.7-0.9-4.8-3.2-4.8h-1.6V65.8z"/>
							<path class="st0" d="M104.3,55.3h5.6v0.9h-4.6v4.1h4.3v0.9h-4.3v4.6h4.7v0.9h-5.8V55.3z"/>
							<path class="st0" d="M120.1,58.2c0-1.4-0.6-2.2-2-2.2c-1.4,0-2.1,0.9-2.1,2c0,3.4,5.5,1.5,5.5,5.5c0,2.2-1.4,3.3-3.4,3.3
								c-2.1,0-3.3-1.1-3.3-3.4v-0.3h1v0.4c0,1.4,0.8,2.4,2.3,2.4c1.4,0,2.4-0.7,2.4-2.3c0-3.4-5.5-1.4-5.5-5.5c0-1.8,1.2-3,3.1-3
								c2.1,0,3.1,1.1,3.1,3.1H120.1z"/>
							<path class="st0" d="M125.2,55.3h1.3l3.3,11.3h-1.1l-0.9-3.3h-4l-0.9,3.3h-1.1L125.2,55.3z M127.6,62.5l-1.7-6.4h0l-1.7,6.4
								H127.6z"/>
							<path class="st0" d="M130.6,55.3h1v8.1c0,1.7,0.7,2.5,2.2,2.5c1.5,0,2.2-0.8,2.2-2.5v-8.1h1v8.1c0,2.4-1.2,3.4-3.2,3.4
								c-2.1,0-3.2-1-3.2-3.4V55.3z M135.5,52.6l-1.6,2.2h-0.8l1.2-2.2H135.5z"/>
							<path class="st0" d="M138.7,55.3h2.7c3.3,0,4.1,2,4.1,5.7s-0.8,5.7-4.1,5.7h-2.7V55.3z M139.7,65.8h1.6
								c2.2,0,3.2-1.1,3.2-4.8c0-3.7-0.9-4.8-3.2-4.8h-1.6V65.8z"/>
							<path class="st0" d="M147.2,55.3h5.6v0.9h-4.6v4.1h4.3v0.9h-4.3v4.6h4.7v0.9h-5.8V55.3z"/>
						</g>
					</g>
				</g>
			</g>
		</g>
	</g>
	<g>
		<g>
			<g>
				<linearGradient id="SVGID_1_" gradientUnits="userSpaceOnUse" x1="43.119" y1="28.0932" x2="71.508" y2="11.8045">
					<stop  offset="0" style="stop-color:#CC0000"/>
					<stop  offset="1" style="stop-color:#80171B"/>
				</linearGradient>
				<path class="st1" d="M33.3,0.4C18.7,0.4,6.3,9.8,1.8,22.9c2-0.9,18.3-13.6,35.1-3.7C63,34,48,60.8,46.8,64.2
					C58.5,59,66.7,47.3,66.7,33.7C66.7,15.3,51.7,0.4,33.3,0.4z"/>
				<linearGradient id="SVGID_2_" gradientUnits="userSpaceOnUse" x1="23.062" y1="63.063" x2="32.3038" y2="36.6579">
					<stop  offset="0" style="stop-color:#096F35"/>
					<stop  offset="0.7" style="stop-color:#059242"/>
				</linearGradient>
				<path class="st2" d="M33.4,67c14.6,0,27.1-9.4,31.5-22.5c-2,0.9-26.1,16.6-43.5,2c-7.7-6.5-8-17.4-6.3-28.2
					c1.4-8.9,3.7-11.7,4.8-15.1C8.2,8.4,0,20.1,0,33.7C0,52.1,14.9,67,33.4,67z"/>
				<linearGradient id="SVGID_3_" gradientUnits="userSpaceOnUse" x1="6.7254" y1="52.4083" x2="63.2243" y2="14.8512">
					<stop  offset="0" style="stop-color:#059242"/>
					<stop  offset="3.172159e-02" style="stop-color:#2F9936"/>
					<stop  offset="7.004586e-02" style="stop-color:#5AA12A"/>
					<stop  offset="0.1114" style="stop-color:#81A720"/>
					<stop  offset="0.1553" style="stop-color:#A1AD17"/>
					<stop  offset="0.2023" style="stop-color:#BBB110"/>
					<stop  offset="0.2538" style="stop-color:#D0B50A"/>
					<stop  offset="0.312" style="stop-color:#DEB706"/>
					<stop  offset="0.3826" style="stop-color:#E6B904"/>
					<stop  offset="0.5" style="stop-color:#E9B903"/>
					<stop  offset="0.56" style="stop-color:#E8B403"/>
					<stop  offset="0.635" style="stop-color:#E6A403"/>
					<stop  offset="0.718" style="stop-color:#E28B02"/>
					<stop  offset="0.8069" style="stop-color:#DC6702"/>
					<stop  offset="0.9004" style="stop-color:#D53901"/>
					<stop  offset="0.9965" style="stop-color:#CC0200"/>
					<stop  offset="1" style="stop-color:#CC0000"/>
				</linearGradient>
				<path class="st3" d="M17.2,23c-6.4,8-6,18.2-11.3,19.1c-2.1,0.3-5.5-1.5-5.8-7.1c0.5,14.7,10.5,26.9,24,30.8
					c-3.2-4.4-4.3-6.5-4.3-12.4c0-14.6,11.7-25.4,25.8-26.7c11-1,16.3,1.4,21,8.1c0-0.4,0-0.8,0-1.1c0-9.3-3.7-17.7-9.9-23.7
					C54.7,7.9,32.8,3.7,17.2,23z"/>
			</g>
		</g>
	</g>
</g>
</svg>
